SplineFontDB: 3.2
FontName: Untitled1
FullName: Untitled1
FamilyName: Untitled1
Weight: Regular
Copyright: Copyright (c) 2021, Una Ada
UComments: "2021-5-31: Created with FontForge (http://fontforge.org)"
Version: 001.000
ItalicAngle: 0
UnderlinePosition: -100
UnderlineWidth: 50
Ascent: 760
Descent: 240
InvalidEm: 0
LayerCount: 2
Layer: 0 0 "Back" 1
Layer: 1 0 "Fore" 0
XUID: [1021 374 -1678095732 4566278]
FSType: 0
OS2Version: 0
OS2_WeightWidthSlopeOnly: 0
OS2_UseTypoMetrics: 1
CreationTime: 1622498915
ModificationTime: 1622503655
PfmFamily: 17
TTFWeight: 400
TTFWidth: 5
LineGap: 100
VLineGap: 0
OS2TypoAscent: 760
OS2TypoAOffset: 0
OS2TypoDescent: -240
OS2TypoDOffset: 0
OS2TypoLinegap: 100
OS2WinAscent: 760
OS2WinAOffset: 0
OS2WinDescent: 240
OS2WinDOffset: 0
HheadAscent: 760
HheadAOffset: 0
HheadDescent: -240
HheadDOffset: 0
OS2CapHeight: 705
OS2XHeight: 500
OS2Vendor: 'PfEd'
MarkAttachClasses: 1
DEI: 91125
Encoding: ISO8859-1
UnicodeInterp: none
NameList: AGL For New Fonts
DisplaySize: -48
AntiAlias: 1
FitToEm: 0
WinInfo: 0 32 16
BeginPrivate: 0
EndPrivate
BeginChars: 256 95

StartChar: exclam
Encoding: 33 33 0
Width: 460
Flags: HW
LayerCount: 2
Fore
SplineSet
237 81 m 0
 216 81 196 93 187 113 c 0
 181 126 166 158 151 407 c 0
 144 522 139 641 139 693 c 0
 139 698 139 702 139 706 c 0
 139 736 165 760 195 760 c 0
 225 760 249 734 249 704 c 0
 249 701 249 697 249 692 c 0
 249 643 254 529 260 420 c 0
 273 204 285 164 287 159 c 0
 290 152 292 144 292 137 c 0
 292 116 280 96 260 86 c 0
 252 82 245 81 237 81 c 0
311 45 m 0
 317 35 321 25 321 14 c 0
 321 -3 312 -20 297 -31 c 2
 275 -46 l 2
 266 -52 255 -55 244 -55 c 0
 226 -55 210 -47 199 -31 c 0
 193 -22 190 -11 190 0 c 0
 190 18 198 35 214 46 c 2
 235 60 l 2
 244 66 255 69 265 69 c 0
 283 69 300 61 311 45 c 0
EndSplineSet
EndChar

StartChar: quotedbl
Encoding: 34 34 1
Width: 460
Flags: HW
LayerCount: 2
Fore
SplineSet
206.5 630 m 0
 218.5 598 228.5 564 235.5 531 c 0
 236.5 527 236.5 524 236.5 520 c 0
 236.5 494 218.5 471 192.5 466 c 0
 188.5 465 185.5 465 181.5 465 c 0
 155.5 465 132.5 482 127.5 508 c 0
 115.5 564 93.5 625 72.5 654 c 0
 65.5 664 61.5 676 61.5 687 c 0
 61.5 704 69.5 720 84.5 731 c 0
 94.5 738 105.5 741 116.5 741 c 0
 133.5 741 150.5 733 161.5 718 c 0
 177.5 696 192.5 666 206.5 630 c 0
393.5 592 m 0
 397.5 584 398.5 576 398.5 568 c 0
 398.5 547 387.5 527 368.5 518 c 0
 360.5 514 352.5 513 344.5 513 c 0
 324.5 513 304.5 524 294.5 544 c 0
 287.5 558 281.5 573 274.5 589 c 0
 261.5 620 246.5 654 233.5 671 c 0
 225.5 681 221.5 694 221.5 706 c 0
 221.5 722 227.5 737 241.5 748 c 0
 251.5 756 263.5 760 275.5 760 c 0
 291.5 760 308.5 753 319.5 739 c 0
 341.5 711 358.5 671 375.5 632 c 0
 381.5 617 387.5 604 393.5 592 c 0
EndSplineSet
EndChar

StartChar: numbersign
Encoding: 35 35 2
Width: 460
Flags: HW
LayerCount: 2
Fore
SplineSet
390 314 m 0
 381 313 372 313 363 312 c 1
 361 295 359 277 357 259 c 1
 381 255 400 235 403 210 c 0
 403 208 403 207 403 205 c 0
 403 177 382 153 354 150 c 0
 349 149 344 148 339 148 c 1
 333 118 327 88 320 56 c 0
 314 30 291 12 266 12 c 0
 262 12 258 13 254 14 c 0
 228 19 211 41 211 67 c 0
 211 71 211 75 212 79 c 0
 217 102 222 124 226 145 c 1
 216 145 205 144 195 144 c 1
 193 126 191 108 190 90 c 0
 188 61 164 38 135 38 c 0
 134 38 132 39 131 39 c 0
 102 41 80 65 80 93 c 0
 80 106 82 120 83 133 c 1
 80 133 78 133 75 133 c 0
 49 133 26 151 21 178 c 0
 20 181 20 185 20 188 c 0
 20 214 38 238 65 242 c 0
 77 244 88 246 99 247 c 1
 101 256 102 265 104 274 c 0
 106 285 107 295 109 305 c 1
 104 305 100 305 95 305 c 0
 66 306 42 331 42 360 c 0
 42 391 67 415 97 415 c 0
 98 415 98 415 99 415 c 0
 108 415 116 415 124 415 c 1
 126 435 127 454 127 473 c 0
 127 503 152 528 182 528 c 0
 212 528 237 503 237 473 c 0
 237 454 235 434 234 415 c 1
 241 415 249 416 256 416 c 1
 256 429 255 441 254 454 c 0
 254 456 254 457 254 459 c 0
 254 487 276 511 304 514 c 0
 306 514 307 514 309 514 c 0
 337 514 360 492 363 464 c 0
 364 450 366 436 366 422 c 1
 371 422 375 424 380 424 c 0
 382 424 383 424 385 424 c 0
 413 424 437 402 440 374 c 0
 440 372 440 371 440 369 c 0
 440 341 418 317 390 314 c 0
245 255 m 1
 247 272 249 290 251 306 c 1
 241 306 231 305 221 305 c 1
 218 288 215 271 212 255 c 1
 223 255 234 255 245 255 c 1
EndSplineSet
EndChar

StartChar: dollar
Encoding: 36 36 3
Width: 460
Flags: HW
LayerCount: 2
Fore
SplineSet
431 159 m 0
 438 137 440 117 440 99 c 0
 440 52 421 21 402 2 c 0
 384 -16 362 -29 333 -38 c 1
 328 -84 319 -158 306 -201 c 0
 299 -225 277 -240 253 -240 c 0
 248 -240 243 -240 238 -238 c 0
 214 -231 199 -209 199 -185 c 0
 199 -180 199 -174 201 -169 c 0
 209 -142 216 -92 221 -50 c 1
 210 -50 199 -49 188 -48 c 0
 121 -42 63 -28 61 -27 c 0
 37 -20 20 3 20 27 c 0
 20 32 21 36 22 41 c 0
 29 65 51 82 75 82 c 0
 80 82 84 81 89 80 c 2
 89 80 141 66 199 61 c 0
 213 60 226 59 238 59 c 0
 287 59 314 69 324 79 c 0
 329 84 330 90 330 98 c 0
 330 108 328 119 325 128 c 0
 313 171 292 202 259 225 c 0
 228 247 192 258 157 270 c 0
 126 280 97 290 73 306 c 0
 28 335 20 375 20 403 c 0
 20 433 32 476 85 514 c 0
 107 530 133 543 166 555 c 1
 161 615 155 662 149 695 c 0
 148 699 148 702 148 706 c 0
 148 732 167 754 193 759 c 0
 197 760 200 760 204 760 c 0
 230 760 252 741 257 715 c 0
 263 682 269 639 274 585 c 1
 308 592 332 595 334 595 c 0
 336 595 337 595 339 595 c 0
 367 595 392 574 395 546 c 0
 395 544 395 543 395 541 c 0
 395 513 374 488 346 485 c 0
 345 485 295 479 241 464 c 0
 240 464 240 463 239 463 c 0
 234 462 228 461 223 459 c 0
 155 437 130 412 130 401 c 0
 131 400 135 396 145 392 c 0
 157 386 173 381 191 375 c 0
 230 362 278 346 322 315 c 0
 347 297 369 276 386 252 c 0
 406 225 421 194 431 159 c 0
EndSplineSet
EndChar

StartChar: percent
Encoding: 37 37 4
Width: 460
Flags: HW
LayerCount: 2
Fore
SplineSet
422.5 719 m 0
 433.5 708 438.5 695 438.5 681 c 0
 438.5 671 435.5 661 430.5 652 c 0
 293.5 426 199.5 222 153.5 48 c 0
 146.5 23 124.5 8 100.5 8 c 0
 95.5 8 91.5 8 86.5 9 c 0
 62.5 16 45.5 39 45.5 63 c 0
 45.5 68 46.5 72 47.5 77 c 0
 89.5 236 167.5 416 280.5 614 c 1
 263.5 616 245.5 619 229.5 623 c 1
 229.5 621 230.5 618 230.5 616 c 0
 230.5 590 223.5 568 210.5 549 c 0
 192.5 523 163.5 507 131.5 507 c 0
 98.5 507 68.5 522 47.5 549 c 0
 30.5 571 21.5 600 21.5 629 c 0
 21.5 657 28.5 686 40.5 708 c 0
 58.5 741 88.5 760 121.5 760 c 0
 143.5 760 170.5 753 203.5 744 c 0
 233.5 736 266.5 727 297.5 723 c 0
 306.5 722 314.5 722 321.5 722 c 0
 340.5 722 351.5 725 355.5 728 c 0
 364.5 733 374.5 736 383.5 736 c 0
 397.5 736 411.5 730 422.5 719 c 0
395.5 186 m 1
 397.5 182 399.5 177 401.5 172 c 0
 410.5 149 416.5 122 416.5 99 c 0
 416.5 66 406.5 32 390.5 5 c 0
 367.5 -33 331.5 -55 290.5 -55 c 0
 254.5 -55 222.5 -37 203.5 -6 c 0
 188.5 18 181.5 50 181.5 88 c 0
 181.5 129 194.5 168 216.5 199 c 0
 236.5 226 273.5 260 341.5 268 c 0
 343.5 268 345.5 268 347.5 268 c 0
 375.5 268 399.5 248 402.5 220 c 0
 402.5 218 402.5 216 402.5 214 c 0
 402.5 204 400.5 194 395.5 186 c 1
299.5 68 m 0
 303.5 77 306.5 89 306.5 99 c 0
 306.5 103 306.5 113 302.5 124 c 0
 302.5 125 300.5 127 300.5 128 c 1
 294.5 117 291.5 103 291.5 88 c 0
 291.5 74 292.5 65 294.5 59 c 1
 296.5 61 297.5 64 299.5 68 c 0
EndSplineSet
EndChar

StartChar: ampersand
Encoding: 38 38 5
Width: 460
Flags: HW
LayerCount: 2
Fore
SplineSet
416 169 m 0
 432 158 440 141 440 123 c 0
 440 113 437 102 431 93 c 0
 418 74 398 55 372 39 c 0
 350 25 324 13 296 4 c 0
 281 -1 267 -5 252 -8 c 1
 270 -14 283 -30 287 -50 c 0
 291 -74 294 -98 294 -122 c 0
 294 -146 291 -171 287 -195 c 0
 282 -221 259 -240 233 -240 c 0
 230 -240 226 -240 223 -239 c 0
 197 -234 178 -212 178 -186 c 0
 178 -182 178 -179 179 -175 c 0
 183 -157 184 -140 184 -122 c 0
 184 -104 183 -88 179 -70 c 0
 178 -67 178 -63 178 -60 c 0
 178 -42 187 -25 201 -15 c 1
 196 -15 192 -15 187 -15 c 0
 164 -15 142 -12 123 -6 c 0
 58 14 20 66 20 137 c 0
 20 191 50 242 105 281 c 1
 102 282 100 284 97 286 c 0
 79 296 65 308 55 322 c 0
 41 340 35 361 35 383 c 0
 35 409 45 437 65 465 c 0
 81 488 102 509 127 528 c 0
 151 546 178 560 204 570 c 1
 178 575 159 598 159 625 c 0
 159 639 153 654 140 671 c 0
 132 681 128 693 128 705 c 0
 128 721 135 737 149 748 c 0
 159 756 171 760 183 760 c 0
 199 760 216 753 227 739 c 0
 255 703 269 666 269 627 c 0
 269 607 262 593 249 582 c 1
 258 583 266 584 275 584 c 0
 292 584 308 582 323 577 c 0
 347 570 362 548 362 524 c 0
 362 519 361 514 360 509 c 0
 353 485 331 469 307 469 c 0
 302 469 297 470 292 471 c 0
 287 472 282 473 276 473 c 0
 255 473 230 464 205 448 c 0
 169 425 150 397 146 385 c 1
 153 379 177 367 230 358 c 0
 274 351 316 350 316 350 c 2
 345 350 370 325 370 295 c 0
 370 267 347 242 319 240 c 0
 264 236 212 220 175 196 c 0
 146 177 130 155 130 137 c 0
 130 111 139 104 155 99 c 0
 164 96 174 95 186 95 c 0
 208 95 235 100 261 108 c 0
 301 121 330 142 339 155 c 0
 350 170 367 179 385 179 c 0
 396 179 406 175 416 169 c 0
EndSplineSet
EndChar

StartChar: quotesingle
Encoding: 39 39 6
Width: 460
Flags: HW
LayerCount: 2
Fore
SplineSet
303 555 m 0
 303 527 280 502 251 500 c 0
 250 500 249 500 248 500 c 0
 219 500 195 523 193 552 c 0
 190 608 180 650 164 678 c 0
 159 686 157 695 157 704 c 0
 157 723 167 743 185 753 c 0
 193 758 202 760 211 760 c 0
 230 760 250 750 260 732 c 0
 284 690 303 629 303 555 c 0
EndSplineSet
EndChar

StartChar: parenleft
Encoding: 40 40 7
Width: 460
Flags: HW
LayerCount: 2
Fore
SplineSet
431 735 m 0
 437 725 440 714 440 704 c 0
 440 686 431 669 415 659 c 0
 307 590 220 478 171 345 c 0
 149 285 135 222 131 163 c 0
 130 151 130 139 130 128 c 0
 130 83 136 42 148 6 c 0
 163 -40 187 -75 219 -98 c 0
 249 -120 286 -130 329 -130 c 0
 335 -130 341 -129 347 -129 c 0
 348 -129 349 -129 350 -129 c 0
 379 -129 405 -154 405 -185 c 0
 405 -213 383 -237 354 -239 c 0
 345 -240 337 -240 328 -240 c 0
 261 -240 203 -222 154 -187 c 0
 128 -168 105 -145 86 -117 c 0
 68 -91 55 -61 44 -28 c 0
 28 20 20 74 20 131 c 0
 20 212 36 299 68 384 c 0
 126 539 227 669 355 751 c 0
 365 757 376 760 386 760 c 0
 404 760 421 751 431 735 c 0
EndSplineSet
EndChar

StartChar: parenright
Encoding: 41 41 8
Width: 460
Flags: HW
LayerCount: 2
Fore
SplineSet
440 266 m 0
 440 264 440 263 440 261 c 0
 440 165 412 69 358 -17 c 0
 303 -105 223 -179 127 -233 c 0
 119 -238 109 -240 100 -240 c 0
 81 -240 62 -230 52 -212 c 0
 47 -203 45 -194 45 -185 c 0
 45 -166 55 -147 73 -137 c 0
 153 -92 220 -31 265 41 c 0
 308 109 330 186 330 260 c 0
 330 337 307 409 263 474 c 0
 215 546 143 607 49 656 c 0
 30 666 20 685 20 705 c 0
 20 714 22 723 26 731 c 0
 36 750 55 760 75 760 c 0
 84 760 93 758 101 754 c 0
 211 696 297 622 355 535 c 0
 383 494 404 449 418 403 c 0
 432 359 439 313 440 266 c 0
EndSplineSet
EndChar

StartChar: asterisk
Encoding: 42 42 9
Width: 460
Flags: HW
LayerCount: 2
Fore
SplineSet
395 374 m 0
 422 370 440 347 440 321 c 0
 440 318 440 314 439 311 c 0
 434 284 411 265 385 265 c 0
 382 265 378 265 375 266 c 0
 368 267 358 269 345 270 c 1
 352 260 358 249 365 239 c 0
 371 230 374 220 374 210 c 0
 374 192 365 174 349 163 c 0
 340 157 329 154 319 154 c 0
 301 154 284 163 273 179 c 0
 265 191 258 202 250 214 c 0
 244 224 237 233 231 243 c 1
 218 225 205 209 194 194 c 0
 183 180 167 172 151 172 c 0
 139 172 127 176 117 184 c 0
 103 195 96 211 96 227 c 0
 96 239 100 251 108 261 c 0
 112 266 115 272 119 277 c 1
 112 277 104 277 97 277 c 2
 74 277 l 2
 44 277 20 303 20 333 c 0
 20 363 45 387 75 387 c 0
 76 387 l 2
 99 387 l 2
 109 387 119 386 129 386 c 1
 120 397 111 406 103 412 c 0
 89 423 83 439 83 455 c 0
 83 467 87 480 95 490 c 0
 106 504 121 510 137 510 c 0
 149 510 162 506 172 498 c 0
 190 484 209 463 229 438 c 1
 255 477 280 511 301 536 c 0
 312 549 328 555 343 555 c 0
 355 555 368 551 378 542 c 0
 391 531 398 515 398 499 c 0
 398 487 394 474 385 464 c 0
 368 444 347 414 324 381 c 1
 354 379 379 377 395 374 c 0
EndSplineSet
EndChar

StartChar: plus
Encoding: 43 43 10
Width: 460
Flags: HW
LayerCount: 2
Fore
SplineSet
385.5 418 m 0
 414.5 417 439.5 393 439.5 364 c 0
 439.5 333 414.5 308 384.5 308 c 2
 383.5 308 l 0
 376.5 308 370.5 308 363.5 308 c 0
 332.5 308 299.5 306 265.5 304 c 1
 267.5 274 273.5 247 283.5 229 c 0
 288.5 221 290.5 212 290.5 203 c 0
 290.5 184 280.5 164 262.5 154 c 0
 253.5 149 244.5 147 235.5 147 c 0
 216.5 147 197.5 157 187.5 175 c 0
 167.5 210 159.5 251 156.5 294 c 1
 130.5 291 104.5 288 81.5 285 c 0
 78.5 285 76.5 284 74.5 284 c 0
 47.5 284 24.5 304 20.5 332 c 0
 20.5 334 20.5 337 20.5 339 c 0
 20.5 366 39.5 390 67.5 394 c 0
 93.5 398 121.5 401 152.5 404 c 1
 151.5 434 150.5 464 145.5 490 c 0
 144.5 493 144.5 496 144.5 499 c 0
 144.5 525 163.5 550 190.5 554 c 0
 193.5 555 197.5 555 200.5 555 c 0
 226.5 555 250.5 537 254.5 510 c 0
 259.5 479 261.5 446 262.5 414 c 1
 297.5 416 331.5 418 364.5 418 c 0
 371.5 418 378.5 418 385.5 418 c 0
EndSplineSet
EndChar

StartChar: comma
Encoding: 44 44 11
Width: 460
Flags: HW
LayerCount: 2
Fore
SplineSet
186 62 m 2
 191 87 214 105 240 105 c 0
 267 105 290 85 294 59 c 0
 296 47 297 35 297 22 c 0
 297 -12 288 -51 260 -85 c 0
 250 -97 235 -105 218 -105 c 0
 188 -105 163 -80 163 -50 c 0
 163 -46 163 -42 164 -38 c 2
 186 62 l 2
EndSplineSet
EndChar

StartChar: hyphen
Encoding: 45 45 12
Width: 460
Flags: HW
LayerCount: 2
Fore
SplineSet
387 408 m 0
 416 407 440 382 440 353 c 0
 440 322 414 298 385 298 c 0
 384 298 384 298 383 298 c 0
 373 298 362 299 350 299 c 0
 290 302 203 305 110 305 c 0
 99 305 87 305 76 305 c 0
 46 305 20 329 20 359 c 0
 20 389 44 415 74 415 c 0
 86 415 97 415 108 415 c 0
 203 415 293 412 354 409 c 0
 366 409 377 408 387 408 c 0
EndSplineSet
EndChar

StartChar: period
Encoding: 46 46 13
Width: 460
Flags: HW
LayerCount: 2
Fore
SplineSet
228.5 57 m 2
 257.5 50 l 2
 281.5 44 299.5 23 299.5 -3 c 0
 299.5 -33 274.5 -58 244.5 -58 c 0
 240.5 -58 235.5 -58 231.5 -57 c 2
 202.5 -50 l 2
 178.5 -44 160.5 -23 160.5 3 c 0
 160.5 33 185.5 58 215.5 58 c 0
 219.5 58 224.5 58 228.5 57 c 2
EndSplineSet
EndChar

StartChar: slash
Encoding: 47 47 14
Width: 460
Flags: HW
LayerCount: 2
Fore
SplineSet
399 758 m 0
 423 751 440 729 440 705 c 0
 440 700 439 696 438 691 c 0
 411 585 343 453 278 325 c 0
 216 203 151 78 128 -13 c 0
 122 -38 100 -55 75 -55 c 0
 71 -55 67 -54 62 -53 c 0
 37 -47 20 -25 20 0 c 0
 20 4 21 9 22 13 c 0
 48 117 112 243 180 376 c 0
 243 498 308 625 332 719 c 0
 339 743 361 760 385 760 c 0
 390 760 394 759 399 758 c 0
EndSplineSet
EndChar

StartChar: zero
Encoding: 48 48 15
Width: 460
Flags: HW
LayerCount: 2
Fore
SplineSet
414 533 m 0
 431 486 440 433 440 379 c 0
 440 376 440 373 440 370 c 0
 438 289 411 201 365 128 c 0
 343 93 317 62 290 41 c 0
 257 14 222 1 188 0 c 0
 187 0 187 0 186 0 c 0
 154 0 124 12 100 36 c 0
 71 65 49 111 35 172 c 0
 22 231 20 279 20 303 c 0
 20 359 40 444 72 521 c 0
 89 562 109 599 128 627 c 0
 154 665 181 689 210 700 c 0
 216 702 223 704 229 704 c 0
 251 704 272 690 281 668 c 0
 282 665 283 662 284 659 c 0
 296 658 307 654 315 651 c 0
 357 634 391 593 414 533 c 0
330 372 m 0
 330 375 330 377 330 380 c 0
 330 420 323 462 311 495 c 0
 298 529 282 545 273 549 c 0
 272 549 271 550 270 550 c 0
 261 550 246 540 230 522 c 0
 219 510 205 505 190 505 c 0
 189 505 186 505 185 505 c 0
 181 497 178 488 174 479 c 0
 149 417 130 346 130 304 c 0
 130 287 130 246 142 196 c 0
 154 142 170 121 176 115 c 0
 181 110 184 110 186 110 c 0
 204 110 239 135 272 187 c 0
 307 242 329 311 330 372 c 0
EndSplineSet
EndChar

StartChar: one
Encoding: 49 49 16
Width: 460
Flags: HW
LayerCount: 2
Fore
SplineSet
387 107 m 0
 416 106 440 81 440 52 c 0
 440 21 415 -3 385 -3 c 0
 384 -3 384 -3 383 -3 c 0
 366 -2 341 -2 312 -2 c 0
 249 -2 163 -4 77 -7 c 0
 76 -7 76 -7 75 -7 c 0
 46 -7 20 16 20 47 c 0
 20 76 44 102 73 103 c 0
 112 105 151 105 188 106 c 1
 198 274 214 443 231 571 c 1
 204 562 179 555 156 551 c 0
 152 550 149 550 145 550 c 0
 119 550 97 569 92 595 c 0
 91 599 91 602 91 606 c 0
 91 632 110 654 136 659 c 0
 175 666 222 682 277 707 c 0
 285 710 292 712 300 712 c 0
 312 712 323 708 333 701 c 0
 347 691 354 674 354 657 c 0
 354 654 353 651 353 648 c 0
 331 524 311 316 298 108 c 1
 335 108 366 108 387 107 c 0
EndSplineSet
EndChar

StartChar: two
Encoding: 50 50 17
Width: 460
Flags: HW
LayerCount: 2
Fore
SplineSet
439 81 m 0
 440 78 440 75 440 72 c 0
 440 46 421 22 394 18 c 0
 326 7 266 1 217 1 c 0
 213 1 211 1 207 1 c 0
 144 2 101 13 73 34 c 0
 54 48 42 66 38 87 c 0
 36 95 35 103 35 111 c 0
 35 142 49 175 65 203 c 0
 85 239 114 281 147 330 c 0
 193 397 247 478 290 560 c 1
 274 564 253 569 225 572 c 0
 201 575 174 576 148 576 c 0
 125 576 101 575 80 573 c 0
 78 573 77 573 75 573 c 0
 47 573 23 594 20 622 c 0
 20 624 20 625 20 627 c 0
 20 655 42 679 70 682 c 0
 95 684 122 686 149 686 c 0
 179 686 209 684 237 681 c 0
 309 673 363 656 397 631 c 0
 412 621 420 604 420 587 c 0
 420 580 418 572 415 565 c 0
 367 457 295 352 238 268 c 0
 211 228 187 193 170 164 c 0
 156 140 150 126 147 119 c 1
 156 116 175 112 210 111 c 0
 213 111 217 111 220 111 c 0
 263 111 316 117 376 126 c 0
 379 127 382 127 385 127 c 0
 411 127 435 108 439 81 c 0
EndSplineSet
EndChar

StartChar: three
Encoding: 51 51 18
Width: 460
Flags: HW
LayerCount: 2
Fore
SplineSet
429 244 m 0
 437 215 440 185 440 155 c 0
 440 142 439 129 438 116 c 0
 433 69 406 33 363 14 c 0
 339 4 314 -1 289 -1 c 0
 261 -1 234 5 213 10 c 0
 162 23 109 47 65 79 c 0
 50 90 42 106 42 123 c 0
 42 134 46 146 53 156 c 0
 64 171 80 179 97 179 c 0
 108 179 120 175 130 168 c 0
 162 144 202 126 240 116 c 0
 258 112 275 109 290 109 c 0
 302 109 312 111 319 114 c 0
 325 117 328 120 329 129 c 0
 330 136 330 144 330 152 c 0
 330 174 327 196 322 218 c 0
 314 250 301 276 284 295 c 0
 265 317 242 327 214 328 c 0
 192 329 173 342 165 362 c 0
 162 369 161 376 161 383 c 0
 161 397 166 410 176 421 c 0
 197 443 223 461 249 478 c 0
 274 495 301 512 313 529 c 0
 316 534 319 538 319 544 c 0
 319 549 318 555 314 563 c 0
 305 583 293 589 284 592 c 0
 278 594 271 594 264 594 c 0
 248 594 229 591 208 584 c 0
 177 574 141 557 104 534 c 0
 95 528 84 525 74 525 c 0
 56 525 38 534 28 551 c 0
 22 560 20 570 20 580 c 0
 20 599 29 617 46 627 c 0
 91 655 134 676 174 689 c 0
 206 699 236 704 263 704 c 0
 282 704 299 702 315 697 c 0
 359 684 392 654 413 610 c 0
 424 588 429 566 429 544 c 0
 429 516 420 488 401 463 c 0
 382 438 357 419 331 401 c 1
 344 392 356 381 367 368 c 0
 395 336 417 292 429 244 c 0
EndSplineSet
EndChar

StartChar: four
Encoding: 52 52 19
Width: 460
Flags: HW
LayerCount: 2
Fore
SplineSet
439 64 m 0
 439 61 440 58 440 55 c 0
 440 29 420 6 393 1 c 0
 390 1 388 0 385 0 c 0
 358 0 335 20 331 47 c 0
 322 102 320 164 320 227 c 0
 320 267 321 307 322 346 c 1
 295 339 269 333 250 330 c 0
 223 326 198 324 176 324 c 0
 120 324 78 337 52 364 c 0
 31 386 20 417 20 456 c 0
 20 479 24 505 32 533 c 0
 49 593 82 651 119 688 c 0
 130 699 145 704 159 704 c 0
 173 704 187 699 197 688 c 0
 207 677 213 663 213 649 c 0
 213 635 207 621 196 610 c 0
 174 589 154 552 141 513 c 0
 132 487 129 467 129 454 c 0
 129 448 130 444 131 441 c 1
 136 438 151 434 177 434 c 0
 192 434 210 435 232 439 c 0
 272 445 307 455 326 463 c 1
 327 488 327 512 327 534 c 0
 327 576 326 612 321 640 c 0
 320 643 320 646 320 649 c 0
 320 675 339 700 366 704 c 0
 369 705 372 705 375 705 c 0
 401 705 425 686 429 659 c 0
 435 623 438 578 438 529 c 0
 438 486 436 438 434 390 c 0
 432 336 430 277 430 221 c 0
 430 165 432 111 439 64 c 0
EndSplineSet
EndChar

StartChar: five
Encoding: 53 53 20
Width: 460
Flags: HW
LayerCount: 2
Fore
SplineSet
433 244 m 0
 433 243 433 240 433 239 c 0
 433 232 433 225 433 219 c 0
 433 181 428 147 419 119 c 0
 406 82 386 53 357 32 c 0
 327 10 289 0 244 0 c 0
 239 0 233 0 228 0 c 0
 184 2 134 15 78 37 c 0
 66 42 55 51 49 63 c 0
 38 84 35 108 35 126 c 0
 35 129 35 132 35 135 c 0
 36 160 42 185 53 204 c 0
 63 222 82 233 101 233 c 0
 110 233 119 231 128 226 c 0
 146 216 156 197 156 178 c 0
 156 169 154 160 149 151 c 0
 146 146 145 138 145 130 c 1
 179 118 209 111 234 110 c 0
 237 110 240 110 242 110 c 0
 264 110 281 114 293 122 c 0
 308 132 323 157 323 216 c 0
 323 221 323 226 323 232 c 1
 309 325 157 365 66 380 c 0
 51 382 38 391 30 403 c 0
 24 412 20 423 20 435 c 0
 20 438 20 442 21 445 c 0
 29 486 45 530 70 578 c 1
 48 583 31 601 28 624 c 0
 28 626 28 629 28 631 c 0
 28 658 47 682 75 686 c 0
 178 700 270 715 363 755 c 0
 370 758 378 760 385 760 c 0
 406 760 426 748 435 727 c 0
 438 720 440 712 440 705 c 0
 440 684 428 664 407 655 c 0
 340 626 276 609 209 596 c 1
 180 553 159 512 145 476 c 1
 213 460 269 439 313 412 c 0
 346 392 373 368 393 342 c 0
 415 312 429 280 433 244 c 0
EndSplineSet
EndChar

StartChar: six
Encoding: 54 54 21
Width: 460
Flags: HW
LayerCount: 2
Fore
SplineSet
284 130 m 0
 312 164 330 220 330 272 c 0
 330 278 330 285 329 291 c 0
 325 314 319 324 316 327 c 0
 311 326 294 319 273 291 c 0
 259 271 233 228 228 162 c 0
 227 145 218 131 205 122 c 1
 216 113 230 107 248 106 c 0
 255 107 269 112 284 130 c 0
439 303 m 0
 440 293 440 284 440 274 c 0
 440 241 435 206 426 173 c 0
 413 129 393 90 368 60 c 0
 336 22 297 -1 255 -4 c 0
 254 -4 251 -4 250 -4 c 0
 215 -4 182 6 153 25 c 0
 124 43 100 70 80 104 c 0
 43 169 23 261 20 380 c 0
 20 381 20 381 20 382 c 0
 20 463 35 539 62 602 c 0
 90 668 132 719 183 751 c 0
 192 757 203 760 213 760 c 0
 231 760 249 751 259 734 c 0
 265 725 268 714 268 704 c 0
 268 686 259 669 242 659 c 0
 210 639 182 603 163 558 c 0
 142 509 130 448 130 382 c 0
 131 349 134 309 140 270 c 1
 151 300 164 328 181 352 c 0
 218 404 266 435 313 437 c 0
 314 437 316 437 317 437 c 0
 349 437 378 424 399 399 c 0
 419 377 432 346 438 307 c 0
 438 306 439 304 439 303 c 0
EndSplineSet
EndChar

StartChar: seven
Encoding: 55 55 22
Width: 460
Flags: HW
LayerCount: 2
Fore
SplineSet
390 386 m 0
 418 383 440 359 440 331 c 0
 440 329 440 328 440 326 c 0
 437 298 413 276 385 276 c 0
 383 276 382 276 380 276 c 0
 360 278 337 279 311 279 c 0
 296 279 280 278 264 278 c 1
 217 179 182 92 171 43 c 0
 165 18 143 0 118 0 c 0
 114 0 109 1 105 2 c 0
 79 8 62 30 62 55 c 0
 62 59 63 64 64 68 c 0
 77 126 108 201 139 270 c 1
 118 268 99 265 83 263 c 0
 80 263 78 262 75 262 c 0
 48 262 25 282 21 309 c 0
 21 312 20 315 20 318 c 0
 20 344 40 367 67 372 c 0
 100 377 146 381 194 384 c 1
 225 445 257 507 289 562 c 1
 209 566 110 576 55 597 c 0
 33 605 20 626 20 648 c 0
 20 655 21 662 24 668 c 0
 33 690 54 704 76 704 c 0
 82 704 89 702 95 700 c 0
 138 683 252 671 386 669 c 0
 406 669 424 658 433 640 c 0
 437 631 440 623 440 614 c 0
 440 604 437 594 431 585 c 0
 392 524 354 455 319 388 c 1
 345 388 370 388 390 386 c 0
EndSplineSet
EndChar

StartChar: eight
Encoding: 56 56 23
Width: 460
Flags: HW
LayerCount: 2
Fore
SplineSet
370 350 m 0
 418 294 440 247 440 197 c 0
 440 196 l 0
 439 143 417 93 378 54 c 0
 341 17 291 -5 241 -6 c 0
 240 -6 l 0
 239 -6 l 0
 161 -4 93 24 54 70 c 0
 31 96 20 128 20 160 c 0
 20 166 20 172 21 178 c 0
 25 218 42 254 71 287 c 0
 94 314 123 336 153 360 c 0
 162 367 170 374 179 381 c 1
 142 412 98 447 47 486 c 0
 33 496 26 512 26 529 c 0
 26 541 29 553 37 563 c 0
 39 565 40 567 42 569 c 0
 40 572 38 575 36 578 c 0
 31 587 29 596 29 605 c 0
 29 624 39 643 56 653 c 0
 118 688 180 706 237 706 c 0
 267 706 295 701 320 691 c 0
 370 672 406 634 422 585 c 0
 428 566 431 547 431 529 c 0
 431 518 430 507 428 497 c 0
 423 471 412 445 393 421 c 0
 381 405 365 389 348 374 c 1
 356 366 363 358 370 350 c 0
125 565 m 1
 181 522 229 484 268 450 c 1
 307 483 321 505 321 528 c 0
 321 535 320 543 317 551 c 0
 311 569 299 581 280 588 c 0
 267 593 251 596 234 596 c 0
 226 596 218 595 210 594 c 0
 183 590 154 580 125 565 c 1
301 132 m 0
 319 150 330 173 330 197 c 0
 330 206 330 229 287 278 c 0
 279 287 271 296 261 306 c 1
 247 294 234 283 221 273 c 0
 165 229 135 205 131 166 c 0
 131 165 130 164 130 163 c 0
 130 160 128 152 138 141 c 0
 152 124 187 106 240 104 c 0
 261 105 284 115 301 132 c 0
EndSplineSet
EndChar

StartChar: nine
Encoding: 57 57 24
Width: 460
Flags: HW
LayerCount: 2
Fore
SplineSet
330 466 m 1
 330 493 330 514 328 527 c 0
 323 547 316 563 306 573 c 0
 294 586 272 593 241 596 c 0
 198 596 169 574 156 561 c 0
 138 543 130 524 130 513 c 0
 130 510 130 507 130 504 c 0
 130 471 136 462 157 454 c 0
 169 450 186 447 208 447 c 0
 234 447 269 452 319 465 c 0
 323 466 326 466 330 466 c 1
435 549 m 0
 438 531 440 506 440 477 c 0
 440 332 405 78 400 44 c 0
 396 16 373 -4 346 -4 c 0
 343 -4 341 -3 338 -3 c 0
 310 1 291 25 291 52 c 0
 291 54 291 57 291 59 c 0
 306 166 318 269 324 352 c 1
 281 342 244 337 210 337 c 0
 179 337 150 341 123 349 c 0
 122 349 122 350 121 350 c 0
 78 366 49 393 33 430 c 0
 21 460 20 490 20 515 c 0
 21 558 43 604 80 640 c 0
 101 660 124 676 151 687 c 0
 180 699 212 706 244 706 c 0
 245 706 246 705 247 705 c 0
 307 700 353 682 385 649 c 0
 414 619 426 584 434 553 c 0
 434 552 435 550 435 549 c 0
EndSplineSet
EndChar

StartChar: colon
Encoding: 58 58 25
Width: 460
Flags: HW
LayerCount: 2
Fore
SplineSet
204.5 383 m 0
 180.5 383 159.5 399 152.5 423 c 0
 150.5 428 150.5 434 150.5 439 c 0
 150.5 462 165.5 484 189.5 491 c 2
 209.5 497 l 2
 214.5 499 220.5 499 225.5 499 c 0
 249.5 499 271.5 484 278.5 460 c 0
 280.5 455 280.5 449 280.5 444 c 0
 280.5 421 265.5 399 241.5 392 c 2
 220.5 386 l 2
 215.5 384 209.5 383 204.5 383 c 0
307.5 25 m 0
 308.5 20 309.5 15 309.5 10 c 0
 309.5 -14 293.5 -36 269.5 -43 c 2
 235.5 -53 l 2
 230.5 -54 225.5 -55 220.5 -55 c 0
 196.5 -55 174.5 -39 167.5 -15 c 0
 166.5 -10 165.5 -5 165.5 0 c 0
 165.5 24 181.5 46 205.5 53 c 2
 239.5 63 l 2
 244.5 64 249.5 65 254.5 65 c 0
 278.5 65 300.5 49 307.5 25 c 0
EndSplineSet
EndChar

StartChar: semicolon
Encoding: 59 59 26
Width: 460
Flags: HW
LayerCount: 2
Fore
SplineSet
227 82 m 0
 231 83 234 83 238 83 c 0
 264 83 287 64 292 38 c 0
 294 26 295 14 295 3 c 0
 295 -45 275 -77 255 -97 c 0
 244 -108 230 -113 216 -113 c 0
 202 -113 188 -108 177 -98 c 0
 166 -87 160 -73 160 -59 c 0
 160 -45 166 -31 176 -20 c 0
 179 -17 185 -12 185 3 c 0
 185 7 185 12 184 17 c 0
 183 21 183 24 183 28 c 0
 183 54 201 77 227 82 c 0
216 385 m 0
 190 385 165 404 161 431 c 0
 161 434 160 437 160 440 c 0
 160 466 180 489 207 494 c 2
 236 499 l 2
 239 499 242 500 245 500 c 0
 271 500 294 480 299 453 c 0
 299 450 300 447 300 444 c 0
 300 418 280 395 253 390 c 2
 224 385 l 2
 221 385 219 385 216 385 c 0
EndSplineSet
EndChar

StartChar: less
Encoding: 60 60 27
Width: 460
Flags: HW
LayerCount: 2
Fore
SplineSet
404 51 m 0
 426 42 440 22 440 0 c 0
 440 -6 438 -13 436 -19 c 0
 428 -41 407 -55 385 -55 c 0
 379 -55 372 -53 366 -51 c 0
 289 -22 184 68 34 234 c 0
 25 244 20 257 20 270 c 0
 20 283 25 296 33 306 c 0
 115 404 188 476 279 544 c 0
 289 551 301 555 312 555 c 0
 329 555 345 547 356 533 c 0
 363 523 367 511 367 500 c 0
 367 483 359 467 345 456 c 0
 272 401 212 346 148 272 c 1
 293 115 367 65 404 51 c 0
EndSplineSet
EndChar

StartChar: equal
Encoding: 61 61 28
Width: 460
Flags: HW
LayerCount: 2
Fore
SplineSet
355.5 321 m 0
 360.5 322 365.5 323 370.5 323 c 0
 394.5 323 416.5 307 423.5 283 c 0
 424.5 278 425.5 274 425.5 269 c 0
 425.5 245 408.5 222 384.5 215 c 0
 367.5 210 331.5 204 204.5 200 c 0
 137.5 198 75.5 197 74.5 197 c 0
 44.5 197 19.5 222 19.5 252 c 0
 19.5 282 44.5 307 74.5 307 c 0
 75.5 307 135.5 308 201.5 310 c 0
 323.5 314 351.5 320 355.5 321 c 0
80.5 387 m 0
 50.5 387 25.5 412 25.5 442 c 0
 25.5 472 50.5 497 80.5 497 c 0
 146.5 497 346.5 505 372.5 510 c 0
 376.5 511 380.5 511 384.5 511 c 0
 409.5 511 432.5 494 438.5 469 c 0
 439.5 465 440.5 460 440.5 456 c 0
 440.5 431 423.5 409 397.5 403 c 0
 390.5 401 371.5 397 243.5 392 c 0
 180.5 389 111.5 387 80.5 387 c 0
EndSplineSet
EndChar

StartChar: greater
Encoding: 62 62 29
Width: 460
Flags: HW
LayerCount: 2
Fore
SplineSet
417 355 m 0
 432 344 440 327 440 310 c 0
 440 300 438 290 432 281 c 0
 403 235 370 196 334 154 c 0
 289 101 242 47 203 -26 c 0
 193 -45 174 -55 154 -55 c 0
 145 -55 137 -53 129 -49 c 0
 110 -39 100 -20 100 0 c 0
 100 9 102 18 106 26 c 0
 150 109 203 171 250 226 c 0
 270 250 290 272 308 295 c 1
 278 313 248 330 216 347 c 0
 158 379 98 412 41 457 c 0
 27 468 20 484 20 500 c 0
 20 512 24 524 32 534 c 0
 43 548 59 555 75 555 c 0
 87 555 99 551 109 543 c 0
 159 504 213 475 269 444 c 0
 317 418 367 390 417 355 c 0
EndSplineSet
EndChar

StartChar: question
Encoding: 63 63 30
Width: 460
Flags: HW
LayerCount: 2
Fore
SplineSet
440 221 m 0
 440 219 440 218 440 216 c 0
 440 188 418 164 390 161 c 0
 358 158 314 155 270 155 c 0
 257 155 244 155 231 156 c 0
 161 160 115 174 89 201 c 0
 73 217 64 238 64 261 c 0
 64 265 65 268 65 272 c 0
 65 273 l 0
 72 327 124 392 203 487 c 0
 224 512 244 536 260 557 c 0
 264 562 266 566 269 570 c 1
 258 574 242 579 217 583 c 0
 179 589 130 593 75 593 c 0
 45 593 20 618 20 648 c 0
 20 678 45 703 75 703 c 0
 75 703 l 0
 124 703 195 700 254 688 c 0
 285 682 311 673 331 663 c 0
 362 648 382 627 391 601 c 0
 394 592 395 582 393 573 c 0
 386 537 352 494 288 417 c 0
 260 383 230 348 208 317 c 0
 193 296 185 282 180 273 c 1
 191 270 211 266 243 265 c 0
 252 265 261 264 270 264 c 0
 310 264 351 268 380 271 c 0
 382 271 383 271 385 271 c 0
 413 271 437 249 440 221 c 0
210 63 m 2
 214 64 219 65 223 65 c 0
 248 65 270 48 276 22 c 0
 277 17 278 13 278 9 c 0
 278 -16 261 -38 236 -44 c 2
 194 -54 l 2
 190 -55 186 -55 182 -55 c 0
 157 -55 134 -38 128 -13 c 0
 127 -9 126 -4 126 0 c 0
 126 25 143 48 169 54 c 2
 210 63 l 2
EndSplineSet
EndChar

StartChar: at
Encoding: 64 64 31
Width: 460
Flags: HW
LayerCount: 2
Fore
SplineSet
215 161 m 0
 186 165 162 179 143 202 c 1
 149 175 157 150 167 127 c 0
 188 79 212 56 225 55 c 0
 228 55 232 55 236 55 c 0
 251 55 268 57 277 63 c 0
 285 69 291 81 299 98 c 0
 308 117 328 128 349 128 c 0
 357 128 365 127 373 123 c 0
 392 114 403 94 403 73 c 0
 403 65 402 57 398 49 c 0
 387 26 371 -4 341 -26 c 0
 314 -46 281 -55 238 -55 c 0
 232 -55 226 -54 219 -54 c 0
 185 -52 152 -36 124 -7 c 0
 102 16 82 46 66 83 c 0
 37 150 20 233 20 312 c 0
 20 392 37 482 67 554 c 0
 84 595 104 629 127 654 c 0
 165 696 204 704 230 704 c 0
 290 704 341 685 378 649 c 0
 412 616 432 568 438 512 c 0
 438 511 l 0
 439 496 440 482 440 467 c 0
 440 429 436 392 428 358 c 0
 414 298 389 260 355 244 c 0
 349 241 344 240 338 239 c 1
 331 220 320 201 302 186 c 0
 282 169 257 160 230 160 c 0
 225 160 220 160 215 161 c 0
241 307 m 0
 241 314 243 321 246 327 c 0
 245 330 244 332 244 335 c 0
 242 349 236 359 229 363 c 1
 225 354 219 337 219 312 c 0
 219 285 226 273 229 270 c 0
 230 270 231 270 231 270 c 0
 234 273 240 284 241 307 c 0
169 513 m 0
 159 489 151 463 145 435 c 1
 148 440 152 443 156 447 c 0
 175 466 197 476 222 476 c 0
 224 476 l 0
 256 476 287 462 311 438 c 0
 317 432 322 426 327 419 c 1
 329 436 330 454 330 472 c 0
 330 482 330 491 329 501 c 0
 327 522 319 552 300 571 c 0
 284 587 261 594 230 594 c 0
 219 594 193 572 169 513 c 0
EndSplineSet
EndChar

StartChar: A
Encoding: 65 65 32
Width: 460
Flags: HW
LayerCount: 2
Fore
SplineSet
440 55 m 0
 440 26 418 2 389 0 c 0
 388 0 386 -1 385 -1 c 0
 357 -1 332 21 330 50 c 0
 325 116 317 180 305 241 c 1
 193 230 l 1
 182 190 171 153 160 120 c 0
 134 41 125 26 115 16 c 0
 104 5 90 -1 76 -1 c 0
 62 -1 48 5 37 15 c 0
 26 26 20 40 20 55 c 0
 20 66 24 78 31 88 c 0
 41 107 72 201 106 334 c 0
 140 466 159 575 159 634 c 0
 159 638 159 642 159 646 c 0
 159 647 159 647 159 648 c 0
 159 672 175 695 198 702 c 0
 203 703 208 704 213 704 c 0
 232 704 251 694 261 677 c 0
 312 588 354 490 384 385 c 0
 391 362 396 338 402 314 c 0
 402 313 402 313 402 312 c 0
 420 233 440 144 440 55 c 0
222 344 m 1
 279 349 l 1
 278 351 279 353 278 355 c 0
 269 388 258 421 246 452 c 1
 239 414 230 377 222 344 c 1
EndSplineSet
EndChar

StartChar: B
Encoding: 66 66 33
Width: 460
Flags: HW
LayerCount: 2
Fore
SplineSet
400 343 m 0
 435 280 440 217 440 185 c 0
 440 181 440 177 440 174 c 0
 440 173 l 0
 434 71 379 30 347 15 c 0
 325 4 299 -1 273 -1 c 0
 238 -1 202 8 167 26 c 1
 161 24 154 23 147 23 c 0
 118 24 94 49 94 78 c 0
 94 81 94 83 94 86 c 0
 94 123 86 216 72 327 c 0
 56 451 38 551 23 595 c 0
 21 601 20 607 20 613 c 0
 20 622 22 630 26 638 c 0
 33 651 44 660 58 665 c 0
 61 666 120 686 186 697 c 0
 215 702 241 704 263 704 c 0
 273 704 282 704 290 703 c 0
 310 701 328 697 343 690 c 0
 364 680 381 666 391 647 c 0
 401 629 409 606 409 579 c 0
 409 552 401 522 377 490 c 0
 363 471 344 452 319 432 c 1
 352 410 379 380 400 343 c 0
165 456 m 1
 168 460 172 464 177 467 c 0
 234 503 271 531 288 555 c 0
 296 565 299 573 299 580 c 0
 299 584 298 587 296 591 c 1
 292 593 283 595 265 595 c 0
 248 595 223 593 188 586 c 0
 172 583 156 579 142 575 c 1
 150 539 159 497 165 456 c 1
330 180 m 0
 330 182 330 184 330 186 c 0
 330 214 324 254 304 289 c 0
 281 331 245 357 196 366 c 0
 189 367 183 369 177 373 c 1
 179 361 180 351 181 341 c 0
 191 263 199 187 202 133 c 1
 226 118 252 110 273 110 c 0
 283 110 292 112 299 115 c 0
 307 119 313 124 318 132 c 0
 325 144 329 160 330 180 c 0
EndSplineSet
EndChar

StartChar: C
Encoding: 67 67 34
Width: 460
Flags: HW
LayerCount: 2
Fore
SplineSet
427 120 m 0
 436 110 440 97 440 85 c 0
 440 70 434 54 421 43 c 0
 390 17 352 2 309 0 c 0
 306 0 304 -1 301 -1 c 0
 266 -1 229 8 194 25 c 0
 145 49 101 87 70 134 c 0
 38 183 20 240 20 299 c 0
 20 302 20 305 20 308 c 0
 22 377 41 448 74 513 c 0
 104 572 145 624 189 658 c 0
 228 689 268 705 305 705 c 0
 314 705 322 704 330 702 c 0
 356 697 373 674 373 648 c 0
 373 644 373 640 372 636 c 0
 367 610 345 593 319 593 c 0
 315 593 311 593 307 594 c 0
 306 594 306 594 305 594 c 0
 297 594 280 590 257 572 c 0
 198 525 130 415 130 300 c 0
 130 263 141 226 162 194 c 0
 182 164 210 139 241 124 c 0
 262 114 282 110 300 110 c 0
 319 110 336 115 349 126 c 0
 359 135 372 139 385 139 c 0
 401 139 416 133 427 120 c 0
EndSplineSet
EndChar

StartChar: D
Encoding: 68 68 35
Width: 460
Flags: HW
LayerCount: 2
Fore
SplineSet
286 160 m 0
 315 194 330 246 330 312 c 0
 330 338 328 367 323 398 c 0
 306 474 278 528 237 559 c 0
 212 578 180 590 143 593 c 1
 169 466 193 295 207 115 c 1
 240 123 267 137 286 160 c 0
432 416 m 0
 437 379 440 345 440 312 c 0
 440 282 438 255 433 229 c 0
 423 173 401 126 369 89 c 0
 319 31 246 -1 156 -1 c 0
 127 -1 103 22 101 51 c 0
 78 389 35 581 22 632 c 0
 21 636 20 640 20 645 c 0
 20 656 24 668 30 677 c 0
 39 690 53 698 69 700 c 0
 88 702 106 703 123 703 c 0
 194 703 255 685 304 647 c 0
 336 623 363 591 384 552 c 0
 405 515 420 470 431 419 c 0
 431 418 432 417 432 416 c 0
EndSplineSet
EndChar

StartChar: E
Encoding: 69 69 36
Width: 460
Flags: HW
LayerCount: 2
Fore
SplineSet
433 131 m 0
 438 123 440 114 440 105 c 0
 440 86 430 66 412 56 c 0
 345 18 287 -1 234 -1 c 0
 221 -1 208 1 196 3 c 0
 136 14 85 52 48 117 c 0
 46 121 44 125 43 129 c 0
 37 149 34 171 34 193 c 0
 34 223 40 254 50 284 c 0
 61 316 77 346 99 373 c 1
 78 389 61 408 48 430 c 0
 29 462 20 500 20 541 c 0
 20 555 21 570 23 584 c 0
 24 591 27 597 31 603 c 0
 65 660 123 698 186 704 c 0
 191 704 197 705 202 705 c 0
 231 705 260 698 289 684 c 0
 324 668 357 642 387 607 c 0
 396 596 401 584 401 571 c 0
 401 556 394 541 382 530 c 0
 371 521 358 516 345 516 c 0
 330 516 315 523 304 535 c 0
 270 574 236 594 203 594 c 0
 201 594 198 594 196 594 c 0
 167 591 145 573 131 555 c 1
 130 549 130 543 130 538 c 0
 130 518 134 501 143 486 c 0
 155 465 178 448 208 438 c 0
 227 432 242 415 245 395 c 0
 245 392 246 390 246 387 c 0
 246 370 238 353 224 343 c 0
 190 317 166 283 153 247 c 0
 147 229 144 212 144 195 c 0
 144 185 145 176 147 167 c 1
 174 124 199 114 216 111 c 0
 222 110 228 109 235 109 c 0
 268 109 309 124 358 152 c 0
 366 157 375 159 384 159 c 0
 403 159 423 149 433 131 c 0
EndSplineSet
EndChar

StartChar: F
Encoding: 70 70 37
Width: 460
Flags: HW
LayerCount: 2
Fore
SplineSet
440 328 m 0
 440 326 440 323 440 321 c 0
 440 294 420 271 392 267 c 2
 208 244 l 1
 209 214 210 184 210 152 c 0
 210 120 209 87 208 53 c 0
 207 23 183 -1 153 -1 c 0
 152 -1 153 -1 152 -1 c 0
 123 0 98 25 98 54 c 0
 98 89 99 124 99 156 c 0
 99 239 96 314 89 378 c 0
 77 482 57 561 28 610 c 0
 23 618 20 628 20 638 c 0
 20 646 22 653 25 660 c 0
 32 676 47 688 64 692 c 0
 104 700 145 705 188 705 c 0
 203 705 217 704 232 703 c 0
 286 700 340 690 388 675 c 0
 412 668 427 645 427 622 c 0
 427 617 426 611 424 606 c 0
 417 582 394 567 371 567 c 0
 366 567 360 568 355 570 c 0
 305 586 248 594 192 594 c 0
 180 594 168 594 156 593 c 1
 175 538 189 472 198 391 c 0
 199 379 201 366 202 354 c 1
 378 376 l 2
 380 376 383 376 385 376 c 0
 412 376 436 356 440 328 c 0
EndSplineSet
EndChar

StartChar: G
Encoding: 71 71 38
Width: 460
Flags: HW
LayerCount: 2
Fore
SplineSet
422 93 m 0
 431 50 440 10 440 -30 c 0
 440 -60 415 -85 385 -85 c 0
 355 -85 330 -60 330 -30 c 0
 330 -2 323 31 315 70 c 0
 315 72 314 73 314 75 c 1
 273 26 224 -1 177 -1 c 0
 172 -1 166 -1 161 0 c 0
 133 4 107 17 86 38 c 0
 69 55 56 76 45 103 c 0
 29 144 20 198 20 254 c 0
 20 307 29 364 44 421 c 0
 62 486 88 547 122 601 c 0
 139 629 156 650 174 666 c 0
 198 688 225 701 252 704 c 0
 257 705 262 705 267 705 c 0
 302 705 334 690 366 659 c 0
 377 648 383 634 383 620 c 0
 383 606 377 592 367 581 c 0
 356 570 342 564 328 564 c 0
 314 564 301 570 290 580 c 0
 278 592 269 595 265 595 c 0
 263 595 246 592 215 542 c 0
 187 497 165 446 150 392 c 0
 137 345 130 297 130 254 c 0
 130 212 136 172 147 144 c 0
 151 134 162 111 176 109 c 0
 177 109 l 0
 186 109 207 118 230 147 c 0
 258 181 280 227 290 275 c 0
 296 300 317 318 343 318 c 0
 345 318 347 318 349 318 c 0
 377 315 398 293 399 265 c 0
 400 199 412 143 422 93 c 0
EndSplineSet
EndChar

StartChar: H
Encoding: 72 72 39
Width: 460
Flags: HW
LayerCount: 2
Fore
SplineSet
437.5 86 m 0
 439.5 80 440.5 74 440.5 68 c 0
 440.5 52 433.5 37 421.5 26 c 0
 411.5 17 398.5 13 385.5 13 c 0
 370.5 13 354.5 19 343.5 32 c 0
 329.5 49 327.5 68 325.5 106 c 0
 324.5 130 323.5 164 322.5 202 c 0
 321.5 242 319.5 291 317.5 341 c 1
 303.5 339 289.5 333 277.5 326 c 0
 257.5 314 240.5 294 224.5 268 c 0
 193.5 216 171.5 141 161.5 49 c 0
 158.5 21 134.5 0 106.5 0 c 0
 105.5 0 104.5 0 103.5 0 c 0
 75.5 2 51.5 26 51.5 55 c 0
 51.5 112 54.5 172 54.5 231 c 0
 54.5 375 47.5 518 21.5 627 c 0
 20.5 631 19.5 636 19.5 640 c 0
 19.5 665 36.5 688 62.5 694 c 0
 66.5 695 71.5 696 75.5 696 c 0
 100.5 696 123.5 679 129.5 653 c 0
 149.5 571 158.5 473 162.5 370 c 1
 180.5 390 199.5 407 220.5 420 c 0
 248.5 437 278.5 447 310.5 451 c 1
 305.5 526 297.5 595 285.5 634 c 0
 283.5 639 282.5 645 282.5 650 c 0
 282.5 673 297.5 695 321.5 702 c 0
 326.5 704 332.5 705 337.5 705 c 0
 360.5 705 383.5 690 390.5 666 c 0
 420.5 569 427.5 359 432.5 206 c 0
 434.5 157 435.5 102 437.5 86 c 0
EndSplineSet
EndChar

StartChar: I
Encoding: 73 73 40
Width: 460
Flags: HW
LayerCount: 2
Fore
SplineSet
385 111 m 0
 415 111 440 86 440 56 c 0
 440 26 415 1 385 1 c 0
 302 0 209 -1 81 -15 c 0
 79 -15 77 -15 75 -15 c 0
 47 -15 23 6 20 34 c 0
 20 36 20 37 20 39 c 0
 20 67 41 92 69 95 c 0
 107 99 142 102 174 104 c 1
 176 199 177 284 177 362 c 0
 177 440 176 511 174 576 c 1
 155 575 139 575 123 575 c 0
 109 575 97 575 86 576 c 0
 57 578 35 602 35 631 c 0
 35 662 62 686 91 686 c 0
 92 686 94 686 95 686 c 0
 103 685 113 685 124 685 c 0
 178 685 261 693 349 701 c 2
 368 703 l 2
 370 703 371 703 373 703 c 0
 401 703 425 681 428 653 c 0
 428 651 428 650 428 648 c 0
 428 620 406 596 378 593 c 2
 359 591 l 2
 333 589 308 587 284 585 c 1
 286 519 287 448 287 370 c 0
 287 292 286 206 284 110 c 1
 320 111 354 111 385 111 c 0
EndSplineSet
EndChar

StartChar: J
Encoding: 74 74 41
Width: 460
Flags: HW
LayerCount: 2
Fore
SplineSet
439 717 m 0
 440 713 440 708 440 704 c 0
 440 679 423 657 397 651 c 0
 383 648 368 644 354 641 c 0
 330 635 306 630 282 625 c 1
 329 504 354 332 364 255 c 0
 367 227 369 201 369 178 c 0
 369 107 353 58 320 29 c 0
 304 15 279 2 244 2 c 0
 233 2 221 3 207 6 c 2
 113 24 l 2
 87 29 68 51 68 77 c 0
 68 81 68 84 69 88 c 0
 74 114 97 133 123 133 c 0
 127 133 130 133 134 132 c 2
 229 114 l 2
 230 114 231 113 232 113 c 0
 241 111 246 112 247 112 c 0
 249 114 255 124 258 147 c 0
 259 156 260 167 260 178 c 0
 260 197 258 218 255 241 c 0
 239 363 209 515 171 604 c 1
 144 600 122 598 103 598 c 0
 89 598 76 599 65 601 c 0
 39 606 20 628 20 654 c 0
 20 658 20 661 21 665 c 0
 26 691 48 710 74 710 c 0
 78 710 81 710 85 709 c 0
 89 708 95 708 104 708 c 0
 119 708 143 710 179 716 c 0
 224 724 277 737 329 749 c 0
 343 752 358 756 373 759 c 0
 377 760 382 760 386 760 c 0
 411 760 433 743 439 717 c 0
EndSplineSet
EndChar

StartChar: K
Encoding: 75 75 42
Width: 460
Flags: HW
LayerCount: 2
Fore
SplineSet
436 76 m 0
 439 69 440 61 440 54 c 0
 440 32 428 12 407 3 c 0
 400 0 392 -1 385 -1 c 0
 364 -1 343 11 334 32 c 0
 298 115 255 177 199 225 c 1
 208 169 217 118 221 80 c 0
 221 78 221 77 221 75 c 0
 221 47 200 22 172 19 c 0
 170 19 168 19 166 19 c 0
 138 19 115 39 112 67 c 0
 104 141 81 269 61 383 c 0
 35 531 20 617 20 649 c 0
 20 679 45 704 75 704 c 0
 105 704 130 679 130 649 c 0
 130 626 149 514 166 418 c 1
 223 506 277 593 301 658 c 0
 310 680 331 695 353 695 c 0
 359 695 365 693 371 691 c 0
 393 682 408 661 408 639 c 0
 408 633 406 626 404 620 c 0
 374 538 308 434 242 332 c 1
 325 270 388 188 436 76 c 0
EndSplineSet
EndChar

StartChar: L
Encoding: 76 76 43
Width: 460
Flags: HW
LayerCount: 2
Fore
SplineSet
401 208 m 0
 425 201 440 179 440 156 c 0
 440 151 440 145 438 140 c 0
 430 113 420 92 408 74 c 0
 391 48 369 28 342 16 c 0
 319 5 293 0 264 0 c 0
 254 0 243 1 232 2 c 0
 190 7 143 22 88 46 c 0
 70 54 57 71 55 90 c 0
 36 248 20 410 20 553 c 0
 20 588 21 621 23 653 c 0
 25 682 49 704 78 704 c 0
 79 704 81 704 82 704 c 0
 111 702 133 678 133 650 c 0
 133 619 130 587 130 553 c 0
 130 426 144 279 161 135 c 1
 203 119 239 110 265 110 c 0
 277 110 288 112 296 116 c 0
 312 123 323 140 332 171 c 0
 339 195 361 210 385 210 c 0
 390 210 396 210 401 208 c 0
EndSplineSet
EndChar

StartChar: M
Encoding: 77 77 44
Width: 460
Flags: HW
LayerCount: 2
Fore
SplineSet
438 78 m 0
 439 73 440 69 440 65 c 0
 440 40 423 18 398 12 c 0
 394 11 389 10 385 10 c 0
 360 10 338 27 332 52 c 0
 323 89 315 164 306 258 c 0
 302 297 298 340 294 381 c 1
 286 350 278 323 268 300 c 0
 259 279 239 266 216 266 c 0
 193 267 174 281 166 302 c 0
 165 305 163 309 162 312 c 1
 155 199 146 95 127 37 c 0
 120 14 98 -1 75 -1 c 0
 69 -1 64 0 58 2 c 0
 35 9 20 31 20 54 c 0
 20 60 21 65 23 71 c 0
 43 135 52 299 59 431 c 0
 64 521 68 599 75 646 c 0
 78 667 94 684 114 690 c 0
 119 692 125 692 131 692 c 0
 146 692 160 687 170 675 c 0
 194 648 210 606 221 557 c 1
 229 596 236 632 244 662 c 0
 249 682 266 698 287 702 c 0
 291 703 294 703 298 703 c 0
 315 703 331 695 342 681 c 0
 362 653 376 601 390 505 c 0
 400 432 409 346 416 269 c 0
 424 186 431 108 438 78 c 0
EndSplineSet
EndChar

StartChar: N
Encoding: 78 78 45
Width: 460
Flags: HW
LayerCount: 2
Fore
SplineSet
440 416 m 0
 440 415 440 414 440 413 c 0
 439 342 436 260 426 196 c 0
 421 162 414 134 405 112 c 0
 392 81 376 59 354 45 c 0
 342 37 324 30 302 30 c 0
 287 30 269 33 249 42 c 0
 246 43 243 44 240 46 c 0
 204 71 186 122 167 214 c 1
 158 159 145 101 128 39 c 0
 121 15 99 -1 75 -1 c 0
 70 -1 65 0 60 1 c 0
 36 8 20 30 20 54 c 0
 20 59 21 64 22 69 c 0
 74 254 79 401 84 556 c 0
 84 570 85 583 85 597 c 0
 86 624 106 646 133 650 c 0
 136 650 138 651 141 651 c 0
 165 651 186 635 193 612 c 0
 222 520 241 419 257 330 c 0
 266 280 275 232 284 195 c 0
 290 169 296 155 300 146 c 1
 305 156 313 177 319 220 c 0
 327 277 329 349 330 413 c 0
 327 475 321 517 310 546 c 0
 300 571 286 588 266 613 c 2
 266 613 l 2
 258 623 254 635 254 648 c 0
 254 664 260 680 273 691 c 0
 283 699 295 703 307 703 c 0
 323 703 340 696 351 683 c 2
 351 683 l 2
 374 655 396 627 412 586 c 0
 428 544 437 492 440 416 c 0
EndSplineSet
EndChar

StartChar: O
Encoding: 79 79 46
Width: 460
Flags: HW
LayerCount: 2
Fore
SplineSet
228 105 m 1
 289 141 330 183.958007812 330 374 c 0
 330 423.163085938 317 463 303 492 c 0
 294 510 276 537 248 537 c 0
 210 537 192 507 166 500 c 1
 151 452 130 388.389648438 130 306 c 0
 130 228 143 172 167 140 c 0
 182 120 201 109 228 105 c 1
182 704 m 0
 212 704 240 677 238 646 c 1
 242 646 245 646 249 646 c 0
 271 646 291 642 311 633 c 0
 363 610 427 548 440 380 c 0
 440 378 440 376 440 374 c 0
 438 259 424 182 395 125 c 0
 363 60 314 27 267 1 c 0
 259 -4 249 -6 240 -6 c 0
 239 -6 238 -6 237 -6 c 0
 168 -3 115 24 78 74 c 0
 39 127 20 203 20 308 c 0
 20 310 20 312 20 314 c 0
 43 552 102 650 146 690 c 0
 156 699 169 704 182 704 c 0
EndSplineSet
EndChar

StartChar: P
Encoding: 80 80 47
Width: 460
Flags: HW
LayerCount: 2
Fore
SplineSet
429 574 m 0
 436 553 440 529 440 507 c 0
 440 498 439 490 438 481 c 0
 438 479 438 477 437 475 c 0
 414 385 374 331 314 310 c 0
 294 303 274 300 254 300 c 0
 223 300 192 307 164 313 c 0
 156 315 148 316 140 318 c 1
 149 239 164 149 182 68 c 0
 183 64 183 59 183 55 c 0
 183 30 166 8 140 2 c 0
 136 1 132 0 128 0 c 0
 103 0 81 18 75 43 c 0
 45 175 20 360 20 463 c 0
 20 466 20 468 20 470 c 0
 21 477 22 485 23 493 c 0
 27 527 31 570 53 609 c 0
 79 656 125 687 189 701 c 0
 207 705 225 707 243 707 c 0
 261 707 278 705 294 701 c 0
 325 694 352 679 375 658 c 0
 399 636 418 607 429 574 c 0
330 499 m 1
 330 501 330 504 330 506 c 0
 330 529 322 558 301 577 c 0
 286 590 268 597 245 597 c 0
 235 597 225 595 213 593 c 0
 169 583 156 567 149 555 c 0
 138 536 135 510 132 482 c 0
 131 475 131 468 130 460 c 0
 130 451 131 441 131 430 c 0
 132 430 l 0
 135 430 137 430 140 430 c 0
 156 428 172 424 188 421 c 0
 213 415 236 410 255 410 c 0
 263 410 271 411 277 413 c 0
 299 421 317 450 330 499 c 1
EndSplineSet
EndChar

StartChar: Q
Encoding: 81 81 48
Width: 460
Flags: HW
LayerCount: 2
Fore
SplineSet
341.5 -124 m 0
 351.5 -117 362.5 -113 373.5 -113 c 0
 387.5 -113 401.5 -119 412.5 -130 c 0
 422.5 -140 428.5 -154 428.5 -168 c 0
 428.5 -182 422.5 -197 412.5 -207 c 0
 386.5 -233 360.5 -240 340.5 -240 c 0
 336.5 -240 333.5 -239 330.5 -239 c 0
 275.5 -233 243.5 -181 211.5 -131 c 2
 210.5 -128 l 2
 206.5 -122 203.5 -119 201.5 -117 c 0
 195.5 -120 171.5 -136 138.5 -204 c 0
 129.5 -223 109.5 -234 88.5 -234 c 0
 80.5 -234 72.5 -233 64.5 -229 c 0
 45.5 -220 34.5 -200 34.5 -180 c 0
 34.5 -172 35.5 -164 39.5 -156 c 0
 61.5 -110 84.5 -77 108.5 -52 c 0
 124.5 -36 139.5 -25 156.5 -17 c 1
 151.5 -15 146.5 -13 142.5 -11 c 0
 113.5 1 90.5 20 71.5 46 c 0
 51.5 73 38.5 107 30.5 149 c 0
 24.5 183 20.5 220 20.5 265 c 0
 20.5 276 21.5 288 21.5 300 c 0
 21.5 300 l 0
 24.5 377 35.5 448 53.5 512 c 0
 72.5 582 98.5 639 132.5 683 c 0
 143.5 697 159.5 705 176.5 705 c 0
 188.5 705 200.5 701 210.5 693 c 0
 220.5 685 226.5 674 229.5 663 c 1
 250.5 674 272.5 682 295.5 682 c 0
 304.5 682 313.5 681 322.5 678 c 0
 356.5 668 382.5 643 402.5 601 c 0
 418.5 567 431.5 520 439.5 459 c 0
 439.5 457 439.5 455 439.5 453 c 0
 439.5 443 439.5 432 439.5 422 c 0
 439.5 317 425.5 224 398.5 149 c 0
 366.5 62 317.5 5 254.5 -20 c 1
 270.5 -29 288.5 -46 303.5 -70 c 2
 305.5 -72 l 2
 315.5 -88 324.5 -103 333.5 -115 c 0
 336.5 -119 339.5 -122 341.5 -124 c 0
131.5 295 m 0
 130.5 283 130.5 271 130.5 258 c 0
 130.5 203 137.5 143 160.5 111 c 0
 172.5 94 188.5 85 215.5 82 c 1
 228.5 88 241.5 97 253.5 111 c 0
 269.5 130 283.5 155 295.5 187 c 0
 318.5 249 330.5 328 330.5 418 c 0
 330.5 427 330.5 437 330.5 447 c 1
 317.5 541 297.5 567 292.5 572 c 1
 285.5 570 260.5 559 210.5 498 c 0
 199.5 485 184.5 477 168.5 477 c 0
 165.5 477 161.5 477 158.5 478 c 1
 143.5 424 134.5 361 131.5 295 c 0
EndSplineSet
EndChar

StartChar: R
Encoding: 82 82 49
Width: 460
Flags: HW
LayerCount: 2
Fore
SplineSet
433 82 m 0
 438 73 440 64 440 55 c 0
 440 36 430 16 413 6 c 0
 404 1 394 -1 385 -1 c 0
 366 -1 347 8 337 26 c 0
 334 31 331 38 328 43 c 0
 290 108 249 181 198 202 c 1
 202 155 209 106 209 56 c 0
 209 28 187 4 158 2 c 0
 157 2 155 2 154 2 c 0
 125 2 101 24 99 53 c 0
 84 281 59 466 21 636 c 0
 20 640 20 644 20 648 c 0
 20 661 25 673 33 683 c 0
 43 695 58 703 74 703 c 0
 75 703 76 703 77 703 c 0
 92 702 107 702 121 702 c 0
 177 701 230 699 277 682 c 0
 305 672 330 656 349 636 c 0
 369 614 385 586 395 553 c 0
 402 531 406 509 406 486 c 0
 406 470 404 453 400 437 c 0
 393 404 378 370 356 339 c 0
 339 315 318 292 295 271 c 1
 309 260 323 247 336 231 c 0
 370 191 398 142 423 98 c 0
 426 93 430 87 433 82 c 0
185 326 m 1
 217 346 245 373 265 402 c 0
 285 431 295 460 295 487 c 0
 295 498 293 509 290 520 c 0
 278 560 259 572 240 579 c 0
 215 588 181 590 143 591 c 1
 160 508 174 420 185 326 c 1
EndSplineSet
EndChar

StartChar: S
Encoding: 83 83 50
Width: 460
Flags: HW
LayerCount: 2
Fore
SplineSet
367 345 m 0
 416 301 440 243 440 174 c 0
 440 141 432 112 417 86 c 0
 403 63 383 44 357 29 c 0
 312 4 258 -4 213 -4 c 0
 201 -4 190 -3 180 -2 c 0
 135 1 77 11 47 29 c 0
 30 40 20 58 20 77 c 0
 20 87 23 96 28 105 c 0
 38 122 56 132 75 132 c 0
 85 132 94 129 103 124 c 0
 110 121 144 110 192 107 c 0
 199 107 207 106 214 106 c 0
 252 106 284 113 304 125 c 0
 322 136 330 150 330 174 c 0
 330 212 319 239 293 263 c 0
 266 287 227 306 189 323 c 0
 151 340 113 357 82 383 c 0
 41 417 20 460 20 510 c 0
 20 592 59 638 92 662 c 0
 129 689 180 705 239 707 c 0
 242 707 246 707 249 707 c 0
 290 707 335 701 371 690 c 0
 395 683 410 660 410 637 c 0
 410 632 409 626 407 621 c 0
 400 597 378 582 355 582 c 0
 350 582 344 583 339 585 c 0
 314 593 282 597 253 597 c 0
 250 597 246 597 243 597 c 0
 207 596 176 587 157 573 c 0
 145 564 130 549 130 510 c 0
 130 474 161 457 235 423 c 0
 278 403 328 381 367 345 c 0
EndSplineSet
EndChar

StartChar: T
Encoding: 84 84 51
Width: 460
Flags: HW
LayerCount: 2
Fore
SplineSet
439.5 680 m 0
 440.5 676 440.5 673 440.5 669 c 0
 440.5 643 421.5 621 395.5 616 c 0
 372.5 612 349.5 607 327.5 604 c 1
 337.5 490 341.5 383 341.5 281 c 0
 341.5 201 338.5 125 333.5 51 c 0
 331.5 22 308.5 0 279.5 0 c 0
 278.5 0 275.5 0 274.5 0 c 0
 245.5 2 224.5 27 224.5 55 c 0
 224.5 123 231.5 192 231.5 265 c 0
 231.5 367 226.5 476 217.5 593 c 1
 196.5 592 176.5 591 156.5 591 c 0
 126.5 591 97.5 592 69.5 595 c 0
 41.5 598 19.5 622 19.5 650 c 0
 19.5 652 19.5 653 19.5 655 c 0
 22.5 683 46.5 705 74.5 705 c 0
 76.5 705 77.5 705 79.5 705 c 0
 104.5 703 130.5 702 157.5 702 c 0
 224.5 702 296.5 709 375.5 724 c 0
 379.5 725 382.5 725 386.5 725 c 0
 412.5 725 434.5 706 439.5 680 c 0
EndSplineSet
EndChar

StartChar: U
Encoding: 85 85 52
Width: 460
Flags: HW
LayerCount: 2
Fore
SplineSet
440 347 m 0
 440 345 440 344 440 342 c 0
 440 242 413 167 389 122 c 0
 350 47 296 -1 244 -6 c 0
 241 -6 237 -6 233 -6 c 0
 212 -6 184 0 156 26 c 0
 113 64 79 138 56 244 c 0
 32 353 20 488 20 648 c 0
 20 678 45 703 75 703 c 0
 105 703 130 678 130 648 c 0
 130 481 144 338 171 235 c 0
 182 192 197 156 211 132 c 0
 222 113 231 106 234 104 c 0
 245 109 275 135 300 191 c 0
 314 223 331 273 331 339 c 0
 331 346 330 352 330 359 c 0
 326 435 303 512 260 589 c 0
 255 598 253 607 253 616 c 0
 253 635 263 654 281 664 c 0
 290 669 299 671 308 671 c 0
 327 671 346 661 356 643 c 0
 410 545 439 445 440 347 c 0
EndSplineSet
EndChar

StartChar: V
Encoding: 86 86 53
Width: 460
Flags: HW
LayerCount: 2
Fore
SplineSet
385 704 m 0
 415 704 440 679 440 649 c 0
 440 582 408 413 389 319 c 0
 370 223 337 69 323 35 c 0
 315 15 297 1 276 0 c 0
 275 0 273 0 272 0 c 0
 252 0 234 11 224 28 c 0
 141 172 99 353 67 486 c 0
 59 522 51 552 44 576 c 0
 36 606 31 615 30 617 c 0
 23 626 20 638 20 649 c 0
 20 666 27 683 42 694 c 0
 51 701 63 704 74 704 c 0
 91 704 108 697 119 682 c 0
 139 655 151 607 174 511 c 0
 194 426 219 321 256 221 c 1
 264 257 273 298 282 342 c 0
 312 491 330 608 330 649 c 0
 330 679 355 704 385 704 c 0
EndSplineSet
EndChar

StartChar: W
Encoding: 87 87 54
Width: 460
Flags: HW
LayerCount: 2
Fore
SplineSet
432.5 494 m 0
 437.5 452 439.5 406 439.5 360 c 0
 439.5 309 436.5 259 431.5 214 c 0
 425.5 166 418.5 128 407.5 98 c 0
 389.5 50 363.5 22 328.5 16 c 0
 324.5 15 321.5 15 317.5 15 c 0
 301.5 15 284.5 20 270.5 30 c 0
 260.5 37 249.5 48 238.5 68 c 1
 227.5 43 214.5 25 199.5 14 c 0
 186.5 4 171.5 -1 155.5 -1 c 0
 149.5 -1 144.5 0 138.5 1 c 0
 120.5 5 96.5 15 75.5 44 c 0
 63.5 61 54.5 82 46.5 108 c 0
 34.5 149 26.5 203 22.5 269 c 0
 20.5 299 20.5 329 20.5 359 c 0
 20.5 452 27.5 543 35.5 598 c 0
 40.5 625 62.5 645 88.5 645 c 0
 91.5 645 94.5 644 97.5 644 c 0
 124.5 639 144.5 616 144.5 590 c 0
 144.5 587 143.5 584 143.5 581 c 0
 135.5 531 129.5 450 129.5 365 c 0
 129.5 344 129.5 323 130.5 302 c 0
 133.5 225 141.5 177 149.5 148 c 1
 153.5 163 157.5 183 161.5 208 c 0
 170.5 259 174.5 308 174.5 316 c 0
 174.5 345 196.5 368 225.5 370 c 0
 226.5 370 228.5 370 229.5 370 c 0
 256.5 370 280.5 351 284.5 324 c 0
 295.5 253 305.5 206 314.5 175 c 1
 315.5 182 317.5 190 318.5 199 c 0
 325.5 244 329.5 302 329.5 361 c 0
 329.5 420 324.5 476 317.5 522 c 0
 308.5 576 298.5 596 295.5 602 c 0
 278.5 612 269.5 630 269.5 649 c 0
 269.5 656 270.5 664 273.5 671 c 0
 282.5 692 302.5 704 323.5 704 c 0
 330.5 704 338.5 703 345.5 700 c 0
 383.5 684 401.5 642 410.5 612 c 0
 420.5 581 427.5 542 432.5 494 c 0
EndSplineSet
EndChar

StartChar: X
Encoding: 88 88 55
Width: 460
Flags: HW
LayerCount: 2
Fore
SplineSet
429 126 m 0
 436 116 440 104 440 93 c 0
 440 76 432 60 418 49 c 0
 408 42 396 38 385 38 c 0
 368 38 352 45 341 60 c 0
 302 112 264 167 229 223 c 1
 201 164 176 104 159 41 c 0
 152 17 130 0 106 0 c 0
 101 0 97 1 92 2 c 0
 68 9 51 32 51 56 c 0
 51 61 52 65 53 70 c 0
 79 164 119 251 161 335 c 1
 104 433 57 524 25 593 c 0
 21 601 20 608 20 616 c 0
 20 637 32 657 52 666 c 0
 60 670 68 671 76 671 c 0
 96 671 116 660 125 640 c 0
 149 588 182 522 222 451 c 1
 262 526 297 597 318 664 c 0
 325 688 347 703 371 703 c 0
 376 703 382 703 387 701 c 0
 411 694 426 671 426 648 c 0
 426 643 425 637 423 632 c 0
 397 548 352 463 305 373 c 0
 299 362 293 350 287 339 c 1
 331 267 379 194 429 126 c 0
EndSplineSet
EndChar

StartChar: Y
Encoding: 89 89 56
Width: 460
Flags: HW
LayerCount: 2
Fore
SplineSet
423 661 m 0
 435 625 440 593 440 565 c 0
 440 533 433 505 418 481 c 0
 393 441 352 419 313 407 c 1
 316 374 317 334 317 293 c 0
 317 178 309 54 309 52 c 0
 307 23 284 0 255 0 c 0
 254 0 252 0 251 0 c 0
 222 2 200 26 200 55 c 0
 200 117 207 206 207 286 c 0
 207 327 206 366 204 395 c 1
 188 396 174 399 161 402 c 0
 129 410 101 426 80 447 c 0
 58 469 41 499 31 534 c 0
 23 562 20 595 20 634 c 0
 20 639 20 644 20 650 c 0
 21 679 46 703 75 703 c 0
 76 703 76 703 77 703 c 0
 106 702 130 677 130 648 c 0
 130 642 130 636 130 631 c 0
 130 578 140 542 157 525 c 0
 172 510 198 504 238 504 c 0
 241 504 244 504 247 504 c 1
 289 512 315 523 324 538 c 0
 328 545 330 554 330 565 c 0
 330 581 326 602 318 627 c 0
 316 632 315 638 315 643 c 0
 315 666 330 689 354 696 c 0
 360 698 365 699 371 699 c 0
 394 699 416 684 423 661 c 0
EndSplineSet
EndChar

StartChar: Z
Encoding: 90 90 57
Width: 460
Flags: HW
LayerCount: 2
Fore
SplineSet
396 446 m 0
 422 441 440 419 440 393 c 0
 440 389 440 386 439 382 c 0
 434 356 411 337 385 337 c 0
 381 337 378 337 374 338 c 0
 359 341 342 342 324 342 c 0
 290 342 251 338 215 334 c 1
 191 293 172 257 158 227 c 0
 144 196 130 159 130 133 c 0
 130 129 130 125 131 121 c 1
 140 116 162 109 200 107 c 0
 207 107 214 106 221 106 c 0
 261 106 302 113 340 126 c 0
 346 128 351 129 357 129 c 0
 380 129 403 114 410 91 c 0
 412 85 413 80 413 74 c 0
 413 51 398 28 375 21 c 0
 325 5 271 -4 219 -4 c 0
 209 -4 199 -4 189 -3 c 0
 105 2 65 29 46 50 c 0
 43 53 40 56 38 60 c 0
 25 82 20 105 20 132 c 0
 20 139 20 147 21 155 c 0
 25 188 37 227 58 273 c 0
 66 291 75 309 86 330 c 1
 76 332 68 336 60 340 c 0
 42 350 31 369 31 388 c 0
 31 397 33 405 38 414 c 0
 48 432 68 443 88 443 c 0
 96 443 103 441 110 438 c 0
 113 438 120 436 138 437 c 0
 141 437 145 438 149 438 c 0
 178 484 211 537 251 596 c 1
 249 596 248 596 246 596 c 0
 151 598 91 601 56 624 c 0
 40 635 31 653 31 671 c 0
 31 681 34 691 40 700 c 0
 50 716 68 725 86 725 c 0
 96 725 106 723 115 717 c 0
 117 716 128 712 160 709 c 0
 186 707 217 707 248 706 c 0
 286 705 326 704 358 701 c 0
 377 699 394 687 402 669 c 0
 405 662 407 654 407 646 c 0
 407 635 404 624 397 615 c 0
 355 554 318 499 287 451 c 1
 300 452 313 452 326 452 c 0
 350 452 374 451 396 446 c 0
EndSplineSet
EndChar

StartChar: bracketleft
Encoding: 91 91 58
Width: 460
Flags: HW
LayerCount: 2
Fore
SplineSet
347.5 -115 m 0
 376.5 -116 400.5 -142 400.5 -171 c 0
 400.5 -202 374.5 -225 344.5 -225 c 0
 343.5 -225 343.5 -225 342.5 -225 c 0
 333.5 -225 324.5 -224 316.5 -224 c 0
 266.5 -224 219.5 -231 169.5 -239 c 0
 166.5 -239 164.5 -240 161.5 -240 c 0
 148.5 -240 135.5 -235 125.5 -227 c 0
 113.5 -217 106.5 -201 106.5 -185 c 0
 103.5 211 86.5 506 59.5 693 c 0
 59.5 695 59.5 698 59.5 701 c 0
 59.5 714 63.5 726 71.5 736 c 0
 81.5 748 95.5 755 110.5 756 c 0
 136.5 757 159.5 758 181.5 758 c 0
 203.5 758 224.5 759 247.5 760 c 0
 248.5 760 249.5 760 250.5 760 c 0
 279.5 760 305.5 736 305.5 705 c 0
 305.5 677 282.5 652 253.5 650 c 0
 228.5 649 205.5 648 183.5 648 c 0
 181.5 648 178.5 648 176.5 648 c 1
 198.5 467 211.5 209 215.5 -122 c 1
 250.5 -118 285.5 -114 322.5 -114 c 0
 330.5 -114 339.5 -115 347.5 -115 c 0
EndSplineSet
EndChar

StartChar: backslash
Encoding: 92 92 59
Width: 460
Flags: HW
LayerCount: 2
Fore
SplineSet
422 41 m 0
 434 30 440 16 440 1 c 0
 440 -12 435 -26 426 -37 c 0
 415 -49 400 -55 385 -55 c 0
 372 -55 358 -50 348 -41 c 0
 275 24 224 170 166 339 c 0
 123 462 80 589 28 677 c 0
 23 686 20 695 20 705 c 0
 20 724 30 742 47 752 c 0
 56 757 65 760 75 760 c 0
 94 760 112 750 122 733 c 0
 180 635 226 503 270 375 c 0
 297 297 323 224 349 163 c 0
 376 101 400 60 422 41 c 0
EndSplineSet
EndChar

StartChar: bracketright
Encoding: 93 93 60
Width: 460
Flags: HW
LayerCount: 2
Fore
SplineSet
390.430664062 -176 m 2
 392.430664062 -204 372.430664062 -229 344.430664062 -234 c 0
 320.430664062 -238 297.430664062 -240 274.430664062 -240 c 0
 214.430664062 -240 161.430664062 -228 131.430664062 -219 c 0
 107.430664062 -212 92.4306640625 -190 92.4306640625 -166 c 0
 92.4306640625 -161 92.4306640625 -155 94.4306640625 -150 c 0
 101.430664062 -126 123.430664062 -111 146.430664062 -111 c 0
 151.430664062 -111 157.430664062 -111 162.430664062 -113 c 0
 200.430664062 -124 240.430664062 -130 276.430664062 -130 c 1
 261.430664062 67 247.430664062 247 247.430664062 409 c 0
 247.430664062 491 251.430664062 568 259.430664062 639 c 1
 235.430664062 637 211.430664062 635 187.430664062 635 c 0
 163.430664062 635 139.430664062 637 117.430664062 639 c 0
 89.4306640625 643 69.4306640625 666 69.4306640625 693 c 0
 69.4306640625 695 69.4306640625 698 69.4306640625 700 c 0
 73.4306640625 728 96.4306640625 748 123.430664062 748 c 0
 125.430664062 748 128.430664062 748 130.430664062 748 c 0
 147.430664062 746 165.430664062 745 184.430664062 745 c 0
 227.430664062 745 272.430664062 750 312.430664062 759 c 0
 316.430664062 760 320.430664062 760 324.430664062 760 c 0
 338.430664062 760 352.430664062 755 362.430664062 745 c 0
 373.430664062 734 379.430664062 719 379.430664062 704 c 0
 379.430664062 701 379.430664062 698 378.430664062 695 c 0
 363.430664062 610 357.430664062 515 357.430664062 410 c 0
 357.430664062 243 372.430664062 53 388.430664062 -155 c 2
 390.430664062 -176 l 2
EndSplineSet
EndChar

StartChar: asciicircum
Encoding: 94 94 61
Width: 460
Flags: HW
LayerCount: 2
Fore
SplineSet
417 545 m 1
 431 535 440 519 440 500 c 0
 440 470 415 445 385 445 c 0
 372 445 352 450 335 470 c 0
 330 476 324 484 319 494 c 0
 311 508 304 526 296 545 c 0
 286 569 274 595 262 617 c 0
 256 627 251 635 247 640 c 1
 235 627 216 606 189 571 c 0
 153 524 131 489 127 481 c 0
 119 459 97 445 75 445 c 0
 69 445 63 446 57 448 c 0
 34 456 20 477 20 500 c 0
 20 506 21 512 23 518 c 0
 36 554 102 638 109 648 c 0
 124 667 147 695 168 716 c 0
 194 742 216 760 244 760 c 0
 260 760 286 755 311 733 c 0
 324 722 336 707 348 688 c 0
 367 657 383 621 397 589 c 0
 403 574 412 555 417 545 c 1
EndSplineSet
EndChar

StartChar: underscore
Encoding: 95 95 62
Width: 460
Flags: HW
LayerCount: 2
Fore
SplineSet
70 -41 m 2
 42 -39 20 -16 20 13 c 0
 20 43 45 68 75 68 c 0
 84 68 93 68 103 68 c 0
 176 68 252 67 310 61 c 0
 336 58 358 55 377 50 c 0
 386 48 394 45 404 40 c 0
 411 36 422 31 431 17 c 0
 437 8 440 -2 440 -13 c 0
 440 -43 415 -68 385 -68 c 0
 383 -68 382 -68 380 -68 c 2
 70 -41 l 2
EndSplineSet
EndChar

StartChar: grave
Encoding: 96 96 63
Width: 460
Flags: HW
LayerCount: 2
Fore
SplineSet
317.5 602 m 0
 334.5 592 344.5 573 344.5 554 c 0
 344.5 547 343.5 539 340.5 532 c 0
 331.5 511 310.5 499 289.5 499 c 0
 282.5 499 274.5 501 267.5 504 c 0
 249.5 512 228.5 530 176.5 601 c 0
 149.5 638 125.5 673 124.5 674 c 0
 118.5 683 115.5 694 115.5 705 c 0
 115.5 723 123.5 740 139.5 751 c 0
 148.5 757 159.5 760 169.5 760 c 0
 187.5 760 204.5 752 215.5 736 c 1
 215.5 736 l 1
 215.5 736 236.5 706 260.5 673 c 0
 298.5 621 313.5 606 317.5 602 c 0
EndSplineSet
EndChar

StartChar: a
Encoding: 97 97 64
Width: 460
Flags: HW
LayerCount: 2
Fore
SplineSet
432.5 65 m 0
 437.5 56 440.5 47 440.5 37 c 0
 440.5 18 430.5 0 413.5 -10 c 0
 404.5 -15 394.5 -18 385.5 -18 c 0
 366.5 -18 348.5 -7 338.5 10 c 0
 321.5 39 307.5 77 294.5 121 c 1
 283.5 93 269.5 65 250.5 43 c 0
 218.5 5 184.5 -4 159.5 -4 c 0
 156.5 -4 154.5 -4 151.5 -4 c 0
 113.5 -1 81.5 17 58.5 46 c 0
 28.5 85 19.5 137 19.5 183 c 0
 19.5 216 24.5 245 27.5 263 c 0
 39.5 328 80.5 387 103.5 415 c 0
 119.5 435 136.5 453 153.5 467 c 0
 174.5 485 193.5 495 211.5 499 c 0
 215.5 500 218.5 500 222.5 500 c 0
 248.5 500 271.5 482 276.5 456 c 0
 277.5 452 278.5 447 278.5 443 c 1
 297.5 441 314.5 429 322.5 411 c 0
 342.5 366 358.5 305 375.5 240 c 0
 392.5 174 411.5 100 432.5 65 c 0
207.5 213 m 0
 215.5 249 222.5 295 222.5 333 c 0
 222.5 349 221.5 363 218.5 375 c 0
 218.5 376 218.5 376 218.5 377 c 1
 208.5 368 196.5 355 183.5 339 c 0
 158.5 306 141.5 272 136.5 244 c 0
 132.5 223 130.5 201 130.5 182 c 0
 130.5 175 130.5 169 131.5 163 c 0
 133.5 140 138.5 122 145.5 113 c 0
 148.5 109 151.5 107 157.5 106 c 0
 159.5 107 168.5 114 179.5 134 c 0
 190.5 154 199.5 181 207.5 213 c 0
EndSplineSet
EndChar

StartChar: b
Encoding: 98 98 65
Width: 460
Flags: HW
LayerCount: 2
Fore
SplineSet
431 295 m 0
 437 264 440 235 440 209 c 0
 440 182 437 156 430 134 c 0
 414 79 378 38 324 9 c 0
 320 7 315 5 310 4 c 0
 292 0 274 -2 256 -2 c 0
 216 -2 174 7 131 27 c 0
 130 27 129 28 128 29 c 0
 113 36 97 44 81 54 c 0
 64 64 55 82 55 100 c 0
 55 110 58 121 64 130 c 0
 71 141 80 149 91 153 c 1
 88 191 85 229 81 267 c 1
 64 277 52 295 52 315 c 0
 52 319 53 324 54 328 c 0
 58 345 63 362 69 377 c 1
 57 479 42 583 21 695 c 0
 20 699 20 702 20 706 c 0
 20 732 39 754 65 759 c 0
 69 760 72 760 76 760 c 0
 102 760 124 741 129 715 c 0
 143 639 154 567 164 496 c 1
 179 502 193 504 205 504 c 0
 206 504 l 0
 207 504 206 504 207 504 c 0
 258 502 310 480 352 441 c 0
 393 402 421 351 431 295 c 0
324 166 m 0
 328 179 330 194 330 211 c 0
 330 229 328 251 323 275 c 0
 317 308 301 338 277 361 c 0
 256 381 231 392 207 394 c 0
 205 393 197 387 188 372 c 0
 186 368 183 364 181 360 c 0
 190 277 198 197 205 116 c 1
 222 111 239 108 255 108 c 0
 263 108 271 109 279 110 c 1
 303 124 317 142 324 166 c 0
EndSplineSet
EndChar

StartChar: c
Encoding: 99 99 66
Width: 460
Flags: HW
LayerCount: 2
Fore
SplineSet
387 151 m 0
 416 150 440 125 440 96 c 0
 440 65 415 41 385 41 c 0
 384 41 384 41 383 41 c 0
 367 41 356 35 334 24 c 0
 308 10 274 -7 224 -7 c 0
 214 -7 203 -6 192 -4 c 0
 134 4 87 34 57 84 c 0
 33 124 20 176 20 234 c 0
 20 273 29 312 46 349 c 0
 64 389 90 424 122 450 c 0
 150 473 182 489 217 497 c 0
 235 501 254 504 274 504 c 0
 294 504 315 501 335 497 c 0
 361 492 379 469 379 443 c 0
 379 439 379 436 378 432 c 0
 373 406 351 389 325 389 c 0
 321 389 317 389 313 390 c 0
 300 393 287 394 275 394 c 0
 243 394 215 385 191 365 c 0
 172 350 157 328 146 304 c 0
 136 281 130 257 130 234 c 0
 130 197 137 163 151 141 c 0
 164 119 182 108 207 104 c 0
 213 103 219 103 224 103 c 0
 247 103 263 111 284 122 c 0
 309 135 340 151 383 151 c 0
 384 151 386 151 387 151 c 0
EndSplineSet
EndChar

StartChar: d
Encoding: 100 100 67
Width: 460
Flags: HW
LayerCount: 2
Fore
SplineSet
376 566 m 0
 406 472 440 364 440 293 c 0
 440 248 435 207 424 170 c 0
 413 134 398 103 377 77 c 0
 338 27 282 -2 219 -4 c 0
 218 -4 218 -4 217 -4 c 0
 160 -4 109 20 74 62 c 0
 39 104 20 164 20 235 c 0
 20 298 36 357 67 403 c 0
 96 446 137 478 183 494 c 0
 185 495 186 495 188 495 c 0
 205 499 223 501 240 501 c 0
 255 501 270 499 283 496 c 1
 279 508 275 520 271 532 c 0
 244 616 227 668 227 705 c 0
 227 734 251 759 280 760 c 0
 281 760 281 760 282 760 c 0
 311 760 336 736 337 707 c 0
 338 686 359 619 376 566 c 0
291 145 m 0
 317 177 330 229 330 293 c 0
 330 294 l 0
 330 308 328 326 324 346 c 1
 310 349 298 358 290 371 c 0
 285 379 265 391 237 391 c 0
 230 391 224 391 216 389 c 0
 194 381 174 364 159 342 c 0
 140 314 130 276 130 235 c 0
 130 190 139 155 158 133 c 0
 172 116 192 106 216 106 c 0
 237 107 267 115 291 145 c 0
EndSplineSet
EndChar

StartChar: e
Encoding: 101 101 68
Width: 460
Flags: HW
LayerCount: 2
Fore
SplineSet
430 128 m 0
 437 118 440 107 440 96 c 0
 440 79 432 62 417 51 c 0
 367 15 306 -4 247 -4 c 0
 208 -4 170 4 135 21 c 0
 65 55 23 119 20 197 c 0
 20 203 20 208 20 214 c 0
 20 247 24 280 33 310 c 0
 43 344 58 375 77 402 c 0
 115 456 170 491 227 500 c 0
 238 502 249 503 260 503 c 0
 303 503 343 488 375 462 c 0
 407 436 427 403 427 371 c 0
 427 354 420 339 407 325 c 0
 389 306 353 283 310 264 c 0
 275 249 221 230 167 228 c 0
 154 228 141 232 131 240 c 1
 130 232 130 223 130 214 c 0
 130 210 130 206 130 202 c 0
 131 164 150 136 183 120 c 0
 202 111 225 106 249 106 c 0
 255 106 260 106 266 107 c 0
 298 110 328 122 353 140 c 0
 363 147 375 151 386 151 c 0
 403 151 419 143 430 128 c 0
244 391 m 0
 216 387 188 367 167 338 c 1
 195 340 230 349 265 364 c 0
 279 370 291 377 300 382 c 1
 299 382 l 0
 288 389 275 392 260 392 c 0
 255 392 250 392 244 391 c 0
EndSplineSet
EndChar

StartChar: f
Encoding: 102 102 69
Width: 460
Flags: HW
LayerCount: 2
Fore
SplineSet
385 441 m 0
 415 441 440 416 440 386 c 0
 440 356 415 331 385 331 c 0
 351 331 311 327 270 322 c 1
 305 206 346 113 364 88 c 0
 371 78 375 66 375 55 c 0
 375 38 367 22 352 11 c 0
 342 4 330 0 319 0 c 0
 302 0 286 8 275 23 c 0
 244 66 197 181 161 303 c 0
 161 303 l 0
 136 297 113 292 92 285 c 0
 87 283 80 283 75 283 c 0
 52 283 30 298 23 321 c 0
 21 327 20 332 20 338 c 0
 20 361 35 383 58 390 c 0
 81 397 107 404 134 410 c 1
 128 437 123 462 119 486 c 0
 113 523 111 556 111 585 c 0
 111 608 112 629 116 647 c 0
 124 689 143 719 171 736 c 0
 201 754 228 760 250 760 c 0
 264 760 276 758 286 755 c 0
 311 747 346 727 369 676 c 0
 373 668 374 661 374 653 c 0
 374 632 362 612 342 603 c 0
 334 599 327 598 319 598 c 0
 298 598 278 610 269 630 c 0
 263 642 258 649 254 650 c 0
 250 651 242 649 230 642 c 0
 228 639 221 625 221 584 c 0
 221 576 221 567 222 557 c 0
 224 521 231 478 242 430 c 1
 292 437 342 441 385 441 c 0
EndSplineSet
EndChar

StartChar: g
Encoding: 103 103 70
Width: 460
Flags: HW
LayerCount: 2
Fore
SplineSet
423.5 286 m 0
 434.5 226 439.5 154 439.5 74 c 0
 439.5 49 439.5 23 438.5 -3 c 0
 435.5 -83 409.5 -144 361.5 -184 c 0
 322.5 -217 277.5 -230 233.5 -239 c 0
 229.5 -240 225.5 -240 221.5 -240 c 0
 196.5 -240 173.5 -222 168.5 -196 c 0
 167.5 -192 167.5 -188 167.5 -184 c 0
 167.5 -158 184.5 -136 210.5 -131 c 0
 238.5 -125 269.5 -118 291.5 -100 c 0
 326.5 -71 328.5 -16 329.5 2 c 0
 330.5 18 330.5 34 330.5 50 c 0
 330.5 71 330.5 92 329.5 112 c 1
 293.5 66 245.5 38 193.5 33 c 0
 188.5 32 183.5 32 178.5 32 c 0
 143.5 32 110.5 44 85.5 68 c 0
 61.5 90 43.5 120 32.5 159 c 0
 22.5 195 20.5 228 20.5 244 c 0
 20.5 290 38.5 332 53.5 360 c 0
 73.5 396 100.5 430 129.5 455 c 0
 165.5 485 201.5 500 237.5 500 c 0
 244.5 500 251.5 499 258.5 498 c 0
 281.5 494 298.5 476 302.5 454 c 1
 306.5 455 311.5 456 315.5 456 c 0
 322.5 456 330.5 454 337.5 451 c 0
 378.5 433 406.5 380 423.5 286 c 0
283.5 290 m 0
 283.5 294 283.5 298 283.5 302 c 0
 283.5 329 277.5 354 266.5 375 c 0
 263.5 380 262.5 385 261.5 390 c 1
 254.5 388 247.5 389 239.5 390 c 0
 239.5 390 238.5 390 237.5 390 c 0
 231.5 390 218.5 385 200.5 370 c 0
 162.5 338 130.5 282 130.5 244 c 0
 130.5 211 140.5 166 159.5 149 c 0
 164.5 145 170.5 142 183.5 143 c 0
 212.5 146 239.5 168 259.5 204 c 0
 273.5 230 282.5 260 283.5 290 c 0
EndSplineSet
EndChar

StartChar: h
Encoding: 104 104 71
Width: 460
Flags: HW
LayerCount: 2
Fore
SplineSet
420 267 m 0
 427 228 440 147 440 35 c 0
 440 5 415 -20 385 -20 c 0
 355 -20 330 5 330 35 c 0
 330 79 327 166 312 247 c 0
 294 343 267 374 257 383 c 0
 252 388 247 390 243 390 c 0
 238 382 229 360 221 304 c 0
 213 252 209 188 206 131 c 0
 204 102 202 76 200 51 c 0
 198 22 174 0 146 0 c 0
 145 0 143 0 142 0 c 0
 113 2 90 26 90 55 c 0
 90 59 90 62 90 66 c 0
 90 140 69 292 51 427 c 0
 34 549 20 655 20 705 c 0
 20 735 45 760 75 760 c 0
 105 760 130 735 130 705 c 0
 130 665 144 562 158 459 c 1
 172 477 192 494 220 498 c 0
 227 499 234 500 241 500 c 0
 273 500 303 488 329 466 c 0
 372 429 402 364 420 267 c 0
EndSplineSet
EndChar

StartChar: i
Encoding: 105 105 72
Width: 460
Flags: HW
LayerCount: 2
Fore
SplineSet
418 191 m 0
 432 180 440 164 440 147 c 0
 440 136 436 124 429 114 c 0
 428 113 404 78 371 49 c 0
 349 29 328 16 308 8 c 0
 292 2 278 -1 265 -1 c 0
 241 -1 222 8 212 15 c 0
 180 37 162 78 154 143 c 0
 151 169 149 198 149 232 c 0
 149 252 150 274 151 297 c 0
 153 334 157 370 160 401 c 1
 131 395 104 393 77 392 c 0
 76 392 76 392 75 392 c 0
 45 392 20 416 20 447 c 0
 20 476 44 501 73 502 c 0
 126 504 160 510 197 534 c 0
 206 540 217 543 227 543 c 0
 237 543 248 540 257 534 c 0
 273 524 283 507 283 488 c 0
 283 485 283 482 282 479 c 0
 282 478 268 394 262 302 c 0
 260 272 259 244 259 219 c 0
 259 201 260 185 261 170 c 0
 264 138 269 122 272 113 c 1
 280 117 292 126 308 142 c 0
 327 161 341 179 341 179 c 0
 352 194 369 201 386 201 c 0
 397 201 409 198 418 191 c 0
188 622 m 2
 144 667 l 2
 134 678 129 691 129 705 c 0
 129 720 135 734 146 745 c 0
 157 755 170 760 184 760 c 0
 199 760 213 754 224 743 c 2
 267 698 l 2
 277 687 282 674 282 660 c 0
 282 645 276 631 265 620 c 0
 254 610 241 605 227 605 c 0
 212 605 199 611 188 622 c 2
EndSplineSet
EndChar

StartChar: j
Encoding: 106 106 73
Width: 460
Flags: HW
LayerCount: 2
Fore
SplineSet
384 -177 m 0
 384 -204 364 -226 338 -231 c 0
 304 -237 274 -240 247 -240 c 0
 233 -240 220 -240 208 -238 c 0
 130 -228 96 -187 81 -155 c 0
 77 -147 76 -140 76 -132 c 0
 76 -111 88 -91 108 -82 c 0
 116 -78 123 -77 131 -77 c 0
 152 -77 172 -89 181 -109 c 0
 183 -112 185 -116 192 -120 c 0
 199 -124 209 -127 222 -129 c 0
 228 -130 234 -130 241 -130 c 0
 250 -130 260 -130 271 -129 c 1
 260 2 228 138 200 260 c 0
 179 353 161 434 155 495 c 0
 155 497 155 498 155 500 c 0
 155 528 177 552 205 555 c 0
 207 555 208 555 210 555 c 0
 238 555 262 533 265 505 c 0
 270 451 287 374 307 285 c 0
 338 152 384 -22 384 -177 c 0
159 656 m 2
 148 685 l 2
 145 691 144 698 144 705 c 0
 144 727 157 748 179 756 c 0
 185 759 192 760 199 760 c 0
 221 760 242 747 250 725 c 2
 262 696 l 2
 264 690 266 683 266 677 c 0
 266 655 252 633 230 624 c 0
 223 621 217 621 210 621 c 0
 188 621 167 634 159 656 c 2
EndSplineSet
EndChar

StartChar: k
Encoding: 107 107 74
Width: 460
Flags: HW
LayerCount: 2
Fore
SplineSet
439 37 m 0
 440 33 440 28 440 24 c 0
 440 -1 423 -23 397 -29 c 0
 393 -30 389 -31 385 -31 c 0
 360 -31 337 -13 331 12 c 0
 319 62 305 94 282 116 c 0
 264 133 238 146 202 157 c 1
 206 126 211 94 216 63 c 0
 216 60 217 57 217 54 c 0
 217 28 197 5 170 0 c 0
 167 0 164 -1 161 -1 c 0
 134 -1 111 18 107 45 c 0
 87 169 74 294 62 404 c 0
 49 527 38 634 22 690 c 0
 21 695 20 700 20 705 c 0
 20 729 36 751 60 758 c 0
 65 759 70 760 75 760 c 0
 99 760 121 744 128 720 c 0
 143 668 153 589 164 490 c 1
 191 497 222 501 252 501 c 0
 294 501 336 493 369 473 c 0
 403 452 426 421 431 383 c 0
 432 377 432 370 432 364 c 0
 432 312 403 264 348 226 c 0
 343 223 338 219 333 216 c 1
 342 210 349 203 357 196 c 0
 396 159 422 108 439 37 c 0
316 346 m 0
 322 356 323 362 322 367 c 0
 322 370 320 374 312 379 c 0
 298 387 277 391 252 391 c 0
 227 391 200 387 176 379 c 1
 180 345 183 311 187 275 c 1
 223 283 259 298 285 316 c 0
 299 326 310 336 316 346 c 0
EndSplineSet
EndChar

StartChar: l
Encoding: 108 108 75
Width: 460
Flags: HW
LayerCount: 2
Fore
SplineSet
431 136 m 0
 437 127 440 117 440 107 c 0
 440 89 431 71 415 60 c 0
 414 59 389 43 357 27 c 0
 317 7 286 -2 259 -2 c 0
 251 -2 242 -1 235 1 c 0
 213 6 196 20 186 39 c 0
 157 93 143 154 143 226 c 0
 143 228 143 231 143 233 c 0
 144 296 156 362 167 426 c 0
 179 494 192 564 192 632 c 1
 159 620 121 606 81 602 c 0
 79 602 78 602 76 602 c 0
 48 602 23 623 20 651 c 0
 20 653 20 654 20 656 c 0
 20 684 41 709 69 712 c 0
 100 715 137 729 167 740 c 0
 198 752 221 760 243 760 c 0
 271 760 294 739 297 712 c 0
 300 687 301 662 301 637 c 0
 301 558 288 482 275 407 c 0
 263 341 253 281 253 225 c 0
 253 185 258 146 273 111 c 1
 282 114 294 118 313 128 c 0
 336 140 355 152 355 152 c 0
 364 158 374 161 384 161 c 0
 402 161 420 152 431 136 c 0
EndSplineSet
EndChar

StartChar: m
Encoding: 109 109 76
Width: 460
Flags: HW
LayerCount: 2
Fore
SplineSet
199 500 m 0
 233.41796875 500 251.208984375 480.548828125 266 455 c 1
 277 480 289 495 304 504 c 0
 314 510 325 513 336 513 c 0
 343 513 350 512 357 509 c 0
 387 497 399 466 402 456 c 0
 418.33203125 402.921875 423.235351562 351.826171875 429 274 c 0
 437 179 440 80 440 53 c 0
 439 23 415 -1 385 -1 c 2
 384 -1 l 1
 354 0 329 25 330 55 c 0
 330 74 328 145 323 222 c 1
 316 184 312 156 312 156 c 1
 307.55859375 124.912109375 283.391601562 110.328125 258.938476562 110.328125 c 0
 231.153320312 110.328125 203 129.158203125 203 164 c 0
 203 166 203 168 203 170 c 0
 204 181 205 194 205 208 c 0
 205 233 203 262 199 291 c 1
 184.24609375 227.067382812 172 115.541992188 172 69 c 0
 172 63 172 58 172 53 c 0
 172 18.40625 144.61328125 0.4775390625 117.124023438 0.4775390625 c 0
 91.298828125 0.4775390625 65.3828125 16.302734375 62 49 c 0
 50.9287109375 159.712890625 48.212890625 327.564453125 23 399 c 0
 21 405 20 411 20 417 c 0
 20 444.641601562 41.296875 472 75 472 c 0
 97 472 117 458 126 437 c 1
 141.239257812 471.635742188 158.072265625 500 199 500 c 0
EndSplineSet
EndChar

StartChar: n
Encoding: 110 110 77
Width: 460
Flags: HW
LayerCount: 2
Fore
SplineSet
434 81 m 0
 438 73 440 64 440 56 c 0
 440 36 429 17 410 7 c 0
 402 3 394 0 385 0 c 0
 365 0 346 11 336 30 c 0
 319 62 315 110 309 172 c 0
 304 226 297 289 282 335 c 0
 269 376 254 389 244 393 c 1
 239 386 231 371 222 340 c 0
 213 308 205 268 198 219 c 0
 186 134 182 54 182 53 c 0
 181 24 158 1 129 0 c 0
 128 0 128 0 127 0 c 0
 99 0 76 21 73 49 c 0
 68 89 65 132 62 172 c 0
 58 224 54 273 48 313 c 0
 40 366 31 382 29 386 c 0
 23 395 20 406 20 416 c 0
 20 434 28 451 44 462 c 0
 53 468 64 471 75 471 c 0
 93 471 110 463 121 447 c 0
 126 439 130 431 134 421 c 1
 149 455 164 471 177 482 c 0
 195 497 215 505 237 505 c 0
 241 505 244 504 248 504 c 0
 285 499 316 482 341 454 c 0
 360 432 375 405 387 369 c 0
 406 311 412 243 418 183 c 0
 420 157 423 133 426 113 c 0
 430 89 433 82 434 81 c 0
EndSplineSet
EndChar

StartChar: o
Encoding: 111 111 78
Width: 460
Flags: HW
LayerCount: 2
Fore
SplineSet
393 388 m 0
 423 339 440 282 440 230 c 0
 440 172 416 113 375 68 c 0
 333 22 279 -5 226 -5 c 0
 174 -5 122 21 83 67 c 0
 42 114 20 179 20 248 c 0
 20 307 43 368 82 417 c 0
 123 469 176 499 226 499 c 0
 244 499 260 490 270 476 c 0
 271 476 271 476 272 476 c 0
 297 476 321 466 345 446 c 0
 362 431 379 411 393 388 c 0
294 142 m 0
 317 167 330 199 330 230 c 0
 330 258 321 291 305 321 c 0
 295 338 285 351 278 358 c 1
 277 356 276 353 274 350 c 0
 264 331 245 321 225 321 c 0
 216 321 207 323 199 327 c 0
 187 333 179 344 174 356 c 1
 172 354 170 351 168 349 c 0
 144 319 130 282 130 248 c 0
 130 205 143 167 167 139 c 0
 181 123 203 105 226 105 c 0
 247 105 274 119 294 142 c 0
EndSplineSet
EndChar

StartChar: p
Encoding: 112 112 79
Width: 460
Flags: HW
LayerCount: 2
Fore
SplineSet
329 231 m 0
 330 238 330 245 330 251 c 0
 330 350 254 381 187 389 c 0
 185 389 183 389 181 389 c 0
 163 389 152 378 149 372 c 0
 148 369 146 367 145 365 c 0
 152 302 155 231 157 156 c 1
 158 155 l 1
 172 129 183 116 242 109 c 0
 248 109 268 117 289 142 c 0
 312 168 326 201 329 231 c 0
387 406 m 0
 422 364 440 311 440 251 c 0
 440 241 439 231 438 220 c 0
 434 185 423 148 403 114 c 0
 385 83 362 56 336 36 c 0
 305 12 274 -1 243 -1 c 0
 238 -1 233 -1 228 0 c 0
 201 3 179 8 160 15 c 1
 160 -8 160 -32 160 -56 c 0
 160 -98 161 -141 162 -184 c 0
 162 -214 137 -240 107 -240 c 0
 77 -240 52 -216 52 -186 c 0
 51 -143 50 -99 50 -57 c 0
 48 139 47 324 21 445 c 0
 20 449 20 453 20 457 c 0
 20 483 37 505 63 510 c 0
 67 511 71 511 75 511 c 0
 94 511 111 502 121 487 c 1
 140 495 161 500 182 500 c 0
 188 500 195 500 201 499 c 0
 241 494 277 483 308 468 c 0
 340 452 366 431 387 406 c 0
EndSplineSet
EndChar

StartChar: q
Encoding: 113 113 80
Width: 460
Flags: HW
LayerCount: 2
Fore
SplineSet
434 -160 m 0
 438 -168 440 -177 440 -185 c 0
 440 -205 429 -224 410 -234 c 0
 402 -238 393 -240 385 -240 c 0
 365 -240 346 -229 336 -210 c 0
 310 -159 301 -85 297 2 c 1
 280 -4 262 -7 243 -7 c 0
 212 -7 183 -2 156 6 c 0
 121 17 91 33 69 56 c 0
 35 90 20 134 20 187 c 0
 20 261 59 342 125 409 c 0
 185 469 254 505 310 505 c 0
 316 505 321 505 326 503 c 0
 331 504 336 505 341 505 c 0
 359 502 l 0
 380 495 395 477 397 455 c 0
 401 415 403 372 404 330 c 0
 405 324 406 317 407 311 c 0
 414 266 421 229 421 203 c 0
 421 172 415 141 405 114 c 1
 405 -1 409 -110 434 -160 c 0
295 176 m 0
 295 224 295 272 294 320 c 0
 290 346 286 370 284 389 c 1
 261 380 231 360 203 331 c 0
 157 284 130 230 130 185 c 0
 130 183 l 0
 130 154 139 141 147 133 c 0
 165 114 201 103 243 103 c 0
 261 103 277 112 289 128 c 0
 291 131 293 134 295 137 c 0
 295 150 295 163 295 176 c 0
EndSplineSet
EndChar

StartChar: r
Encoding: 114 114 81
Width: 460
Flags: HW
LayerCount: 2
Fore
SplineSet
400 484 m 0
 424 477 440 455 440 431 c 0
 440 426 439 421 438 416 c 0
 431 392 409 376 385 376 c 0
 380 376 375 377 370 378 c 0
 345 385 322 389 301 389 c 0
 290 389 281 388 271 386 c 0
 248 382 231 374 216 359 c 0
 193 336 179 299 174 252 c 0
 173 242 173 232 173 221 c 0
 173 199 175 175 178 150 c 0
 183 122 189 94 195 69 c 0
 196 65 197 60 197 56 c 0
 197 31 180 9 155 2 c 0
 150 1 146 0 141 0 c 0
 117 0 95 17 88 41 c 0
 79 73 73 105 69 135 c 0
 67 149 64 161 62 175 c 0
 51 236 40 299 24 342 c 0
 21 348 20 355 20 362 c 0
 20 384 33 405 55 413 c 0
 62 416 68 417 75 417 c 0
 88 417 101 412 111 403 c 1
 119 415 128 427 138 437 c 0
 169 468 220 499 298 499 c 0
 328 499 362 494 400 484 c 0
EndSplineSet
EndChar

StartChar: s
Encoding: 115 115 82
Width: 460
Flags: HW
LayerCount: 2
Fore
SplineSet
411 207 m 0
 430 183 440 159 440 133 c 0
 440 103 429 76 407 54 c 0
 391 39 370 27 345 17 c 0
 295 -2 240 -4 224 -4 c 0
 180 -4 151 -2 127 4 c 0
 95 11 69 26 49 47 c 0
 39 58 34 71 34 84 c 0
 34 98 40 113 51 124 c 0
 62 134 75 140 89 140 c 0
 103 140 117 134 128 123 c 0
 141 110 175 106 224 106 c 0
 248 106 274 110 295 116 c 0
 317 122 326 130 329 133 c 1
 327 137 318 150 286 171 c 0
 255 191 215 211 177 230 c 0
 142 248 110 264 84 281 c 0
 68 291 55 301 46 311 c 0
 29 329 20 348 20 369 c 0
 20 383 25 404 48 423 c 0
 56 429 65 435 78 441 c 0
 102 453 131 463 152 469 c 0
 200 484 269 500 315 500 c 0
 345 500 370 475 370 445 c 0
 370 415 345 390 315 390 c 0
 292 390 248 382 204 370 c 0
 190 366 179 363 168 359 c 1
 185 349 206 339 227 328 c 0
 272 305 319 282 357 255 c 0
 380 239 398 223 411 207 c 0
EndSplineSet
EndChar

StartChar: t
Encoding: 116 116 83
Width: 460
Flags: HW
LayerCount: 2
Fore
SplineSet
408 205 m 0
 428 196 440 176 440 155 c 0
 440 147 439 140 435 132 c 0
 415 89 389 55 357 33 c 0
 325 10 287 -1 245 -1 c 0
 211 -1 173 4 142 37 c 0
 118 63 104 100 94 164 c 0
 94 165 94 167 94 168 c 0
 92 191 91 215 91 241 c 0
 91 256 92 271 92 286 c 1
 86 286 81 285 75 285 c 0
 45 285 20 310 20 340 c 0
 20 370 45 395 75 395 c 0
 82 395 89 396 97 396 c 1
 99 424 102 451 104 479 c 0
 110 549 115 615 115 669 c 0
 115 682 114 694 114 705 c 0
 114 734 137 759 166 760 c 0
 167 760 167 760 168 760 c 0
 197 760 223 736 224 707 c 0
 224 696 225 686 225 674 c 0
 225 615 219 545 213 471 c 0
 212 452 210 433 209 414 c 1
 214 415 219 417 224 418 c 0
 267 430 310 448 353 470 c 0
 361 474 370 476 379 476 c 0
 399 476 417 466 427 447 c 0
 431 439 433 430 433 421 c 0
 433 401 423 383 404 373 c 0
 355 347 304 326 255 312 c 0
 237 307 220 303 202 299 c 1
 201 280 201 260 201 242 c 0
 201 219 201 198 203 178 c 0
 212 121 222 112 223 111 c 0
 224 111 227 109 245 109 c 0
 296 109 320 146 335 178 c 0
 344 198 364 210 385 210 c 0
 393 210 400 209 408 205 c 0
EndSplineSet
EndChar

StartChar: u
Encoding: 117 117 84
Width: 460
Flags: HW
LayerCount: 2
Fore
SplineSet
424 110 m 0
 435 100 440 86 440 72 c 0
 440 58 435 44 424 33 c 0
 413 22 399 16 385 16 c 0
 371 16 357 22 346 32 c 0
 332 46 320 64 311 85 c 1
 295 54 277 32 257 17 c 0
 237 2 215 -6 193 -6 c 0
 188 -6 185 -6 180 -5 c 0
 122 3 76 37 49 95 c 0
 27 143 20 202 20 254 c 0
 20 277 21 298 23 317 c 0
 28 373 42 445 59 473 c 0
 69 490 87 499 105 499 c 0
 115 499 126 496 135 490 c 0
 151 479 161 461 161 443 c 0
 161 434 158 425 153 416 c 0
 148 405 135 356 131 294 c 0
 130 280 130 268 130 255 c 0
 130 204 138 162 152 135 c 0
 164 113 179 106 191 104 c 1
 198 110 225 139 254 253 c 0
 273 328 282 400 282 401 c 0
 286 429 309 449 336 449 c 0
 337 449 339 449 340 449 c 0
 369 447 392 423 392 394 c 0
 392 380 392 364 392 350 c 0
 392 329 392 307 392 286 c 0
 392 254 392 224 396 196 c 0
 403 139 417 117 424 110 c 0
EndSplineSet
EndChar

StartChar: v
Encoding: 118 118 85
Width: 460
Flags: HW
LayerCount: 2
Fore
SplineSet
385 500 m 0
 415 500 440 475 440 445 c 0
 440 371 431 291 415 223 c 0
 392 127 357 56 309 14 c 0
 299 5 285 0 272 0 c 0
 260 0 247 5 237 13 c 0
 228 21 203 40 124 176 c 0
 86 242 44 320 25 362 c 0
 21 370 20 377 20 385 c 0
 20 406 32 426 52 435 c 0
 60 439 67 440 75 440 c 0
 96 440 116 428 125 408 c 0
 140 375 177 305 218 234 c 0
 241 194 259 166 272 146 c 1
 286 173 298 207 308 248 c 0
 328 333 330 414 330 445 c 0
 330 475 355 500 385 500 c 0
EndSplineSet
EndChar

StartChar: w
Encoding: 119 119 86
Width: 460
Flags: HW
LayerCount: 2
Fore
SplineSet
428 368 m 0
 436 332 440 289 440 247 c 0
 440 230 439 213 438 196 c 0
 435 165 429 120 414 82 c 0
 390 22 353 6 326 3 c 0
 323 3 320 2 317 2 c 0
 299 2 272 8 247 36 c 0
 244 39 241 43 238 47 c 1
 229 32 220 20 209 11 c 0
 193 -2 175 -9 156 -9 c 0
 152 -9 146 -9 142 -8 c 0
 120 -5 91 6 66 41 c 0
 38 81 22 145 20 232 c 0
 20 239 20 247 20 254 c 0
 20 312 26 372 36 416 c 0
 42 442 64 459 89 459 c 0
 93 459 98 458 102 457 c 0
 128 451 145 429 145 404 c 0
 145 400 145 395 144 391 c 0
 137 360 130 307 130 252 c 0
 130 240 130 227 131 215 c 0
 133 182 137 153 144 132 c 0
 146 125 148 119 150 115 c 1
 154 124 158 138 163 157 c 0
 171 188 175 216 175 222 c 0
 176 249 197 272 224 275 c 0
 226 275 228 275 230 275 c 0
 256 275 278 258 284 233 c 0
 296 182 307 151 315 133 c 1
 317 138 318 144 320 151 c 0
 326 177 330 210 330 244 c 0
 330 280 327 317 321 346 c 0
 315 374 308 388 304 393 c 0
 283 401 270 422 270 444 c 0
 270 449 270 454 272 459 c 0
 279 483 300 498 324 498 c 0
 329 498 334 497 339 496 c 0
 382 484 412 441 428 368 c 0
EndSplineSet
EndChar

StartChar: x
Encoding: 120 120 87
Width: 460
Flags: HW
LayerCount: 2
Fore
SplineSet
427.5 110 m 0
 435.5 100 439.5 87 439.5 75 c 0
 439.5 59 433.5 44 420.5 33 c 0
 410.5 24 397.5 20 385.5 20 c 0
 369.5 20 354.5 27 343.5 40 c 0
 312.5 77 282.5 119 253.5 161 c 1
 222.5 107 194.5 57 173.5 24 c 0
 163.5 8 145.5 -1 127.5 -1 c 0
 117.5 -1 106.5 2 97.5 8 c 0
 80.5 18 71.5 36 71.5 54 c 0
 71.5 64 74.5 75 80.5 84 c 0
 104.5 121 140.5 185 178.5 252 c 0
 180.5 256 182.5 259 184.5 263 c 0
 169.5 285 155.5 307 142.5 325 c 1
 137.5 315 132.5 302 128.5 289 c 0
 121.5 265 99.5 250 75.5 250 c 0
 70.5 250 64.5 250 59.5 252 c 0
 35.5 259 20.5 281 20.5 304 c 0
 20.5 309 20.5 315 22.5 320 c 0
 40.5 380 70.5 426 113.5 455 c 0
 123.5 461 133.5 465 144.5 465 c 0
 158.5 465 172.5 459 183.5 449 c 0
 200.5 432 220.5 405 244.5 370 c 1
 267.5 410 290.5 446 308.5 474 c 0
 319.5 490 336.5 498 354.5 498 c 0
 364.5 498 375.5 495 384.5 489 c 0
 400.5 478 408.5 461 408.5 443 c 0
 408.5 433 405.5 422 399.5 413 c 0
 375.5 377 345.5 325 313.5 268 c 1
 349.5 214 388.5 157 427.5 110 c 0
EndSplineSet
EndChar

StartChar: y
Encoding: 121 121 88
Width: 460
Flags: HW
LayerCount: 2
Fore
SplineSet
436 170 m 0
 434 108 431 42 431 -21 c 0
 431 -77 433 -131 439 -179 c 0
 439 -181 439 -182 439 -184 c 0
 439 -212 418 -237 390 -240 c 0
 388 -240 386 -240 384 -240 c 0
 356 -240 333 -219 330 -191 c 0
 323 -137 321 -77 321 -15 c 0
 321 8 321 31 322 54 c 1
 290 29 252 17 206 17 c 0
 201 17 197 17 192 17 c 0
 142 20 100 45 70 90 c 0
 34 144 20 223 20 298 c 0
 20 362 30 423 45 464 c 0
 53 487 73 500 96 500 c 0
 102 500 109 499 115 497 c 0
 138 489 151 468 151 445 c 0
 151 439 150 432 148 426 c 0
 137 394 130 345 130 296 c 0
 130 293 130 289 130 286 c 0
 132 228 143 179 162 151 c 0
 175 131 188 128 198 127 c 0
 201 127 203 127 206 127 c 0
 224 127 238 130 249 137 c 0
 261 144 272 156 281 175 c 0
 305 223 317 302 329 386 c 0
 333 413 357 433 384 433 c 0
 385 433 385 433 386 433 c 0
 414 432 438 409 439 381 c 0
 440 364 440 346 440 327 c 0
 440 280 438 226 436 170 c 0
EndSplineSet
EndChar

StartChar: z
Encoding: 122 122 89
Width: 460
Flags: HW
LayerCount: 2
Fore
SplineSet
372 343 m 0
 342 301 304 255 267 211 c 0
 241 180 213 147 189 116 c 1
 199 117 209 117 218 117 c 0
 234 117 249 116 264 114 c 0
 323 106 371 81 410 36 c 0
 419 26 423 13 423 0 c 0
 423 -16 417 -31 404 -42 c 0
 394 -51 382 -55 369 -55 c 0
 354 -55 338 -49 327 -36 c 0
 304 -9 277 7 221 7 c 0
 188 7 146 2 88 -10 c 0
 84 -11 81 -11 77 -11 c 0
 61 -11 46 -4 35 9 c 0
 27 19 22 32 22 44 c 0
 22 51 23 57 26 64 c 0
 50 124 114 201 182 282 c 0
 212 317 242 354 268 388 c 1
 246 385 225 384 203 384 c 0
 165 384 127 388 83 392 c 0
 78 392 74 394 69 394 c 0
 41 397 20 421 20 449 c 0
 20 451 20 452 20 454 c 0
 23 482 48 503 76 503 c 0
 78 503 79 503 81 503 c 0
 86 503 90 502 95 502 c 0
 139 498 174 494 206 494 c 0
 256 494 301 503 362 530 c 0
 369 533 376 534 384 534 c 0
 397 534 410 530 420 522 c 0
 433 511 440 495 440 479 c 0
 440 475 440 472 439 468 c 0
 432 434 411 396 372 343 c 0
EndSplineSet
EndChar

StartChar: braceleft
Encoding: 123 123 90
Width: 460
Flags: HW
LayerCount: 2
Fore
SplineSet
393.5 -132 m 0
 398.5 -141 400.5 -149 400.5 -158 c 0
 400.5 -177 389.5 -196 371.5 -206 c 0
 326.5 -231 288.5 -240 258.5 -240 c 0
 221.5 -240 195.5 -226 176.5 -211 c 0
 136.5 -178 115.5 -121 115.5 -41 c 0
 115.5 -37 115.5 -34 115.5 -30 c 0
 116.5 26 127.5 92 146.5 158 c 1
 132.5 164 114.5 172 97.5 177 c 0
 75.5 184 59.5 205 59.5 230 c 0
 59.5 250 71.5 270 90.5 279 c 0
 117.5 292 145.5 307 163.5 319 c 1
 146.5 358 129.5 403 118.5 450 c 0
 110.5 483 107.5 514 107.5 542 c 0
 107.5 581 114.5 615 128.5 644 c 0
 142.5 672 161.5 697 187.5 716 c 0
 213.5 735 245.5 749 283.5 758 c 0
 288.5 759 293.5 760 297.5 760 c 0
 322.5 760 344.5 743 350.5 718 c 0
 351.5 714 352.5 709 352.5 705 c 0
 352.5 680 335.5 658 309.5 652 c 0
 266.5 642 240.5 623 227.5 596 c 0
 219.5 580 216.5 562 216.5 542 c 0
 216.5 466 261.5 370 278.5 333 c 0
 281.5 325 283.5 317 283.5 309 c 0
 283.5 296 279.5 282 271.5 270 c 0
 266.5 262 259.5 254 249.5 246 c 0
 244.5 242 239.5 238 233.5 234 c 1
 244.5 225 252.5 216 257.5 206 c 0
 262.5 196 264.5 187 264.5 177 c 0
 264.5 170 263.5 163 261.5 157 c 0
 239.5 90 226.5 23 225.5 -32 c 0
 225.5 -34 225.5 -36 225.5 -38 c 0
 225.5 -90 236.5 -117 246.5 -126 c 0
 249.5 -128 253.5 -129 259.5 -129 c 0
 273.5 -129 294.5 -123 318.5 -110 c 0
 327.5 -105 336.5 -103 345.5 -103 c 0
 364.5 -103 383.5 -114 393.5 -132 c 0
EndSplineSet
EndChar

StartChar: bar
Encoding: 124 124 91
Width: 460
Flags: HW
LayerCount: 2
Fore
SplineSet
334 -176 m 0
 334 -179 335 -182 335 -185 c 0
 335 -211 315 -234 288 -239 c 0
 285 -239 283 -240 280 -240 c 0
 254 -240 229 -221 225 -194 c 0
 179 86 125 444 125 705 c 0
 125 733 148 758 177 760 c 0
 178 760 179 760 180 760 c 0
 208 760 233 737 235 708 c 0
 249 449 288 102 334 -176 c 0
EndSplineSet
EndChar

StartChar: braceright
Encoding: 125 125 92
Width: 460
Flags: HW
LayerCount: 2
Fore
SplineSet
208.5 580 m 0
 208.5 630 196.5 650 150.5 650 c 0
 144.5 650 139.5 650 132.5 649 c 0
 130.5 649 129.5 649 127.5 649 c 0
 92.5 649 74.5 676 74.5 704 c 0
 74.5 729 89.5 755 121.5 758 c 0
 131.5 759 140.5 759 149.5 759 c 0
 209.5 759 249.5 740 278.5 707 c 0
 299.5 683 318.5 643 318.5 578 c 0
 318.5 545 313.5 507 301.5 461 c 0
 293.5 431 289.5 404 289.5 380 c 0
 289.5 328 305.5 294 346.5 284 c 0
 371.5 277 385.5 254 385.5 230 c 0
 385.5 212 377.5 193 358.5 183 c 0
 342.5 174 325.5 159 319.5 150 c 1
 343.5 82 355.5 22 355.5 -30 c 0
 355.5 -141 301.5 -212 215.5 -238 c 0
 210.5 -240 204.5 -240 199.5 -240 c 0
 165.5 -240 146.5 -212 146.5 -184 c 0
 146.5 -162 158.5 -140 184.5 -132 c 0
 227.5 -120 246.5 -86 246.5 -31 c 0
 246.5 9 235.5 60 214.5 117 c 0
 211.5 125 208.5 136 208.5 150 c 0
 208.5 170 214.5 196 236.5 223 c 1
 198.5 261 180.5 320 180.5 385 c 0
 180.5 419 185.5 455 194.5 490 c 0
 204.5 527 208.5 557 208.5 580 c 0
EndSplineSet
EndChar

StartChar: asciitilde
Encoding: 126 126 93
Width: 460
Flags: HW
LayerCount: 2
Fore
SplineSet
438.5 429 m 0
 420.5 362 371.5 299 306.5 299 c 0
 287.5 299 268.5 304 247.5 316 c 0
 217.5 331 190.5 369 159.5 377 c 0
 157.5 378 154.5 378 152.5 378 c 0
 140.5 378 129.5 368 122.5 358 c 0
 110.5 339 93.5 331 77.5 331 c 0
 48.5 331 19.5 356 19.5 387 c 0
 19.5 399 24.5 412 34.5 424 c 1
 61.5 463 107.5 488 154.5 488 c 0
 170.5 488 185.5 485 201.5 479 c 0
 231.5 469 258.5 449 282.5 426 c 0
 290.5 418 297.5 413 305.5 410 c 1
 318.5 420 328.5 444 332.5 458 c 1
 332.5 458 l 1
 340.5 486 361.5 497 383.5 497 c 0
 411.5 497 440.5 477 440.5 444 c 0
 440.5 439 439.5 434 438.5 429 c 0
EndSplineSet
EndChar

